<svg height="511pt" viewBox="0 -7 511.99959 511" width="511pt" xmlns="http://www.w3.org/2000/svg"><path d="m256 40.03125-200 138.464844v289.957031h400v-289.957031zm0 0" fill="#f6e1c6"/><path d="m85.402344 172.40625 180.898437-125.242188-10.300781-7.132812-200 138.464844v289.957031h20.605469v-279.257813c0-6.699218 3.289062-12.976562 8.796875-16.789062zm0 0" fill="#e2c8ac"/><path d="m56 415.675781h399.996094v52.777344h-399.996094zm0 0" fill="#e2c8ac"/><path d="m56 415.675781v52.777344h20.605469v-52.777344zm0 0" fill="#d3b99f"/><g fill="#525468"><path d="m219.722656 144.070312c0 6.875-5.574218 12.453126-12.453125 12.453126-6.878906 0-12.453125-5.578126-12.453125-12.453126 0-6.878906 5.574219-12.453124 12.453125-12.453124 6.878907 0 12.453125 5.574218 12.453125 12.453124zm0 0"/><path d="m317.167969 144.070312c0 6.875-5.574219 12.453126-12.453125 12.453126-6.875 0-12.449219-5.578126-12.449219-12.453126 0-6.878906 5.574219-12.453124 12.449219-12.453124 6.878906 0 12.453125 5.574218 12.453125 12.453124zm0 0"/><path d="m285.476562 162.648438c-7.609374-13.175782-21.5625-22.226563-34.101562-19.492188-27.9375 5.542969-42.152344 49.757812-20.046875 62.523438 5.914063 3.410156 13.09375 3.378906 20.027344.570312 2.972656-1.207031 6.316406-1.207031 9.285156 0 6.933594 2.808594 14.117187 2.839844 20.027344-.570312 12.285156-7.09375 14.433593-26.359376 4.808593-43.03125zm0 0"/><path d="m292.402344 115.859375c0 8.339844-6.757813 15.097656-15.097656 15.097656-8.339844 0-15.101563-6.757812-15.101563-15.097656s6.761719-15.101563 15.101563-15.101563c8.339843 0 15.097656 6.761719 15.097656 15.101563zm0 0"/><path d="m249.78125 115.859375c0 8.339844-6.757812 15.097656-15.097656 15.097656s-15.101563-6.757812-15.101563-15.097656 6.761719-15.101563 15.101563-15.101563 15.097656 6.761719 15.097656 15.101563zm0 0"/></g><path d="m215.097656 144.070312c0-2.691406.859375-5.175781 2.3125-7.210937-2.257812-3.167969-5.953125-5.242187-10.140625-5.242187-6.878906 0-12.453125 5.574218-12.453125 12.453124 0 12.121094 15.59375 17.03125 22.59375 7.210938-1.453125-2.035156-2.3125-4.519531-2.3125-7.210938zm0 0" fill="#3e4151"/><path d="m312.542969 144.070312c0-2.691406.863281-5.175781 2.3125-7.210937-2.257813-3.167969-5.953125-5.242187-10.140625-5.242187-6.875 0-12.449219 5.574218-12.449219 12.453124 0 12.121094 15.59375 17.035157 22.589844 7.210938-1.449219-2.035156-2.3125-4.519531-2.3125-7.210938zm0 0" fill="#3e4151"/><path d="m251.609375 205.679688c-19.976563-11.535157-10.640625-50.335938 14.546875-60.824219-4.835938-2.039063-9.914062-2.757813-14.78125-1.699219-27.9375 5.542969-42.152344 49.757812-20.046875 62.523438 5.914063 3.410156 13.09375 3.378906 20.027344.570312.261719-.109375.53125-.191406.796875-.28125-.179688-.097656-.363282-.1875-.542969-.289062zm0 0" fill="#3e4151"/><path d="m282.484375 115.859375c0-4.433594 1.917969-8.40625 4.960937-11.167969-2.683593-2.4375-6.234374-3.933594-10.140624-3.933594-8.339844 0-15.101563 6.761719-15.101563 15.101563s6.761719 15.101563 15.101563 15.101563c3.90625 0 7.457031-1.5 10.140624-3.933594-3.042968-2.765625-4.960937-6.738282-4.960937-11.167969zm0 0" fill="#3e4151"/><path d="m239.863281 115.859375c0-4.433594 1.917969-8.40625 4.960938-11.167969-2.683594-2.4375-6.234375-3.933594-10.140625-3.933594-8.339844 0-15.101563 6.761719-15.101563 15.101563s6.761719 15.101563 15.101563 15.101563c3.90625 0 7.457031-1.5 10.140625-3.933594-3.042969-2.765625-4.960938-6.738282-4.960938-11.167969zm0 0" fill="#3e4151"/><path d="m503.714844 167.839844-236.769532-163.921875c-6.585937-4.558594-15.308593-4.558594-21.894531 0l-236.765625 163.921875c-8.730468 6.046875-10.910156 18.027344-4.863281 26.757812 6.046875 8.734375 18.027344 10.914063 26.757813 4.867188l221.824218-153.578125c2.402344-1.664063 5.585938-1.664063 7.988282 0l221.828124 153.578125c8.734376 6.046875 20.714844 3.863281 26.757813-4.867188 6.046875-8.730468 3.867187-20.710937-4.863281-26.757812zm0 0" fill="#a0634a"/><path d="m24.027344 194.597656c-6.046875-8.730468-3.871094-20.710937 4.863281-26.757812l236.765625-163.921875c.210938-.144531.429688-.273438.644531-.40625-6.503906-4.132813-14.875-4.007813-21.25.40625l-236.765625 163.921875c-8.730468 6.046875-10.910156 18.027344-4.863281 26.757812 5.894531 8.515625 17.421875 10.777344 26.089844 5.28125-2.105469-1.335937-3.980469-3.105468-5.484375-5.28125zm0 0" fill="#915039"/><path d="m335.601562 232.480469c-29.738281.03125-55.628906 16.5-69.289062 40.867187l-.007812-.007812s-4.441407 5.550781-10.34375 5.554687c-5.90625.007813-10.347657-5.53125-10.347657-5.53125l-.015625.003907c-13.710937-24.335938-39.632812-40.753907-69.367187-40.726563-44.011719.046875-79.644531 36.074219-79.601563 80.46875.070313 69.667969 45.773438 121.867187 88.242188 155.34375h142.378906c42.457031-33.558594 88.1875-85.898437 88.117188-155.671875-.042969-44.394531-35.753907-80.347656-79.765626-80.300781zm0 0" fill="#f45858"/><path d="m117.234375 313.109375c-.042969-40.921875 30.242187-74.710937 69.449219-79.785156-3.421875-.449219-6.910156-.683594-10.453125-.679688-44.011719.042969-79.644531 36.070313-79.601563 80.464844.070313 69.667969 45.773438 121.867187 88.242188 155.34375h20.605468c-42.46875-33.476563-88.171874-85.671875-88.242187-155.34375zm0 0" fill="#e84949"/><path d="m457.652344 465.363281h-403.304688c-6.070312 0-10.988281 4.921875-10.988281 10.988281v10.988282c0 6.070312 4.917969 10.992187 10.988281 10.992187h403.304688c6.070312 0 10.988281-4.921875 10.988281-10.992187v-10.988282c0-6.066406-4.917969-10.988281-10.988281-10.988281zm0 0" fill="#525468"/><path d="m457.652344 477.726562h-403.304688c-4.34375 0-8.085937-2.523437-9.871094-6.183593-.710937 1.457031-1.117187 3.082031-1.117187 4.808593v10.988282c0 6.070312 4.917969 10.992187 10.988281 10.992187h403.304688c6.070312 0 10.988281-4.921875 10.988281-10.992187v-10.988282c0-1.726562-.40625-3.351562-1.117187-4.808593-1.785157 3.660156-5.527344 6.183593-9.871094 6.183593zm0 0" fill="#3e4151"/></svg>