<?xml version="1.0" encoding="iso-8859-1"?>
<!-- Generator: Adobe Illustrator 19.0.0, SVG Export Plug-In . SVG Version: 6.00 Build 0)  -->
<svg version="1.1" id="Layer_1" xmlns="http://www.w3.org/2000/svg" xmlns:xlink="http://www.w3.org/1999/xlink" x="0px" y="0px"
	 viewBox="0 0 494.68 494.68" style="enable-background:new 0 0 494.68 494.68;" xml:space="preserve">
<path style="fill:#C6232C;" d="M247.344,0.012C110.784,0.012,0,110.732,0,247.356C0,348.588,60.92,435.62,148.096,473.868
	c-0.704-17.232-0.128-38.016,4.264-56.816c4.784-20.064,31.832-134.736,31.832-134.736s-7.904-15.816-7.904-39.16
	c0-36.656,21.28-64.016,47.72-64.016c22.488,0,33.36,16.872,33.36,37.144c0,22.592-14.44,56.424-21.84,87.736
	c-6.184,26.28,13.16,47.656,39.048,47.656c46.856,0,78.408-60.184,78.408-131.488c0-54.2-36.496-94.768-102.904-94.768
	c-75.016,0-121.752,55.92-121.752,118.392c0,21.592,6.328,36.768,16.28,48.512c4.592,5.44,5.216,7.592,3.544,13.816
	c-1.16,4.528-3.904,15.512-5.032,19.84c-1.656,6.248-6.72,8.528-12.36,6.2c-34.576-14.112-50.656-51.936-50.656-94.496
	c0-70.248,59.232-154.528,176.752-154.528c94.44,0,156.592,68.376,156.592,141.704c0,97.032-53.936,169.512-133.488,169.512
	c-26.672,0-51.784-14.44-60.408-30.8c0,0-14.376,56.968-17.392,67.968c-5.232,19.048-15.504,38.128-24.888,52.968
	c22.232,6.576,45.752,10.144,70.08,10.144c136.592,0,247.328-110.736,247.328-247.312C494.672,110.732,383.936,0.012,247.344,0.012z
	"/>
<path style="fill:#890A1C;" d="M184.184,282.324c0,0-7.904-15.816-7.904-39.16c0-36.656,21.28-64.016,47.72-64.016
	c22.488,0,33.36,16.872,33.36,37.144c0,22.592-14.44,56.424-21.84,87.736c-6.184,26.28,13.16,47.656,39.048,47.656
	c46.856,0,78.408-60.184,78.408-131.488c0-54.2-36.496-94.768-102.904-94.768c-75.016,0-121.752,55.92-121.752,118.392
	c0,21.592,6.328,36.768,16.28,48.512c4.592,5.44,5.216,7.592,3.544,13.816c-1.16,4.528-3.904,15.512-5.032,19.84
	c-1.656,6.248-6.72,8.528-12.36,6.2c-5.536-2.264-10.544-5.184-15.16-8.592l47.608,47.616
	C172.56,331.62,184.184,282.324,184.184,282.324z"/>
<path style="fill:#700318;" d="M377.36,132.18c-2.008-0.376-8.592-8.496-10.624-8.928c29.648,26.52,46.704,63.336,46.704,101.616
	c0,97.032-53.936,169.512-133.488,169.512c-26.672,0-51.784-14.44-60.408-30.8c0,0-7.656,30.344-12.968,51.016l77.36,77.352
	c119.232-17.68,210.736-120.464,210.736-244.6c0-0.352-0.024-0.688-0.032-1.048L377.36,132.18z"/>
<path style="fill:#680719;" d="M243.6,185.06l-0.808-0.808l-0.2,0.192C242.92,184.668,243.288,184.836,243.6,185.06z"/>
<path style="fill:#700318;" d="M343.36,284.828l-93.392-93.408c4.888,6.632,7.392,15.344,7.392,24.872
	c0,22.592-14.44,56.424-21.84,87.736c-6.184,26.28,13.16,47.656,39.048,47.656C306.096,351.684,330.64,324.372,343.36,284.828z"/>
<path style="fill:#890A1C;" d="M334.248,478.932l-97.72-97.736c-6.84-4.576-12.264-10.016-15.768-15.768l-1.344-1.344
	c-1.272,5.048-14.4,57-17.264,67.472c-5.232,19.048-15.504,38.128-24.888,52.968c22.232,6.576,45.752,10.144,70.08,10.144
	C277.936,494.668,307.2,489.076,334.248,478.932z"/>
<path style="fill:#E2102E;" d="M17,264.356C17,127.732,127.784,17.012,264.344,17.012c63.968,0,122.264,24.288,166.168,64.144
	C385.264,31.308,319.968,0.012,247.344,0.012C110.784,0.012,0,110.732,0,247.356C0,319.42,30.968,384.18,80.2,429.372
	C40.912,385.604,17,327.772,17,264.356z"/>
<g>
</g>
<g>
</g>
<g>
</g>
<g>
</g>
<g>
</g>
<g>
</g>
<g>
</g>
<g>
</g>
<g>
</g>
<g>
</g>
<g>
</g>
<g>
</g>
<g>
</g>
<g>
</g>
<g>
</g>
</svg>
