<?xml version="1.0" standalone="no"?>
<!DOCTYPE svg PUBLIC "-//W3C//DTD SVG 1.1//EN" "http://www.w3.org/Graphics/SVG/1.1/DTD/svg11.dtd" >
<svg xmlns="http://www.w3.org/2000/svg" xmlns:xlink="http://www.w3.org/1999/xlink" version="1.1">
<metadata>
Created by FontForge 20170731 at Thu Mar  3 21:27:05 2016
 By Aleksey,,,
</metadata>
<defs>
<font id="simple-line-icons" horiz-adv-x="1024" >
  <font-face 
    font-family="simple-line-icons"
    font-weight="400"
    font-stretch="normal"
    units-per-em="1024"
    panose-1="0 0 0 0 0 0 0 0 0 0"
    ascent="960"
    descent="-64"
    bbox="-3 -66 1026.2 962.222"
    underline-thickness="0"
    underline-position="0"
    unicode-range="U+0001-FFFD"
  />
<missing-glyph 
 />
    <glyph glyph-name=".notdef" unicode="&#xfffd;" 
 />
    <glyph glyph-name="glyph1" horiz-adv-x="0" 
d="M0 0v0v0v0z" />
    <glyph glyph-name="glyph1" horiz-adv-x="0" 
d="M0 0v0v0v0z" />
    <glyph glyph-name="nonmarkingreturn" horiz-adv-x="341" 
 />
    <glyph glyph-name="uni0001" horiz-adv-x="0" 
d="M0 0v0v0v0z" />
    <glyph glyph-name="space" unicode=" " horiz-adv-x="512" 
d="M0 0v0v0v0z" />
    <glyph glyph-name="uniE000" unicode="&#xe000;" 
d="M960 157l-278 132q27 14 106 23.5t88 34.5l-30.5 58t-41.5 144q-4 33 -10.5 78t-13.5 107q-5 49 -28 91t-58.5 72t-82 46.5t-99.5 16.5v0v0v0v0q-53 0 -99.5 -16.5t-82 -46.5t-58.5 -72t-28 -91q-7 -62 -13.5 -107t-10.5 -78q-11 -86 -41.5 -144l-30.5 -58
q9 -25 88 -34.5t106 -23.5l-278 -132l-32 -17.5t-32 -57.5v-85q0 -26 18.5 -43.5t45.5 -17.5h896q27 0 45.5 17.5t18.5 43.5v85q0 40 -32 57.5l-32 17.5v0zM64 0v82q0 2 7.5 7t14.5 8l3 1.5t2 1.5l279 132q16 7 26 22.5t10 34.5q1 18 -8.5 33.5t-26.5 24.5q-16 8 -38.5 13
t-56.5 11q-8 1 -18.5 3t-20.5 4q13 31 26.5 73t19.5 91q2 12 3.5 25.5t3.5 28.5q4 26 8.5 58.5t8.5 71.5q9 75 66 122.5t139 47.5v0v0v0v0q82 0 139 -47.5t66 -122.5q4 -39 8.5 -71.5t8.5 -58.5q2 -15 3.5 -28.5t3.5 -25.5q6 -49 19.5 -91t26.5 -73q-10 -2 -20.5 -4
t-18.5 -3q-34 -6 -56.5 -11t-38.5 -13q-17 -9 -26.5 -24.5t-8.5 -33.5q0 -19 10 -34.5t26 -22.5l279 -133q1 0 2 -0.5l3 -1.5q7 -3 14 -8t8 -7v-82h-896v0z" />
    <glyph glyph-name="uniE001" unicode="&#xe001;" 
d="M746 125l-201 111q56 45 75.5 118t19.5 122v135q0 34 -20.5 67.5t-54 60.5t-76.5 44t-88 17q-44 0 -87.5 -17t-77.5 -44t-55 -60.5t-21 -67.5v-135q0 -44 22 -119t79 -120l-207 -112l-27 -16t-27 -38v-81q0 -23 16 -38.5t38 -15.5h692q22 0 38 15.5t16 38.5v81
q0 24 -27 39zM736 0h-672v57l7.5 5t8.5 4q1 1 2 1.5t2 0.5l207 113q14 7 23 20.5t10 29.5q2 16 -4.5 31t-18.5 25q-41 32 -59 91.5t-18 97.5v135q0 35 54.5 80t122.5 45q70 0 122.5 -45t52.5 -80v-135q0 -38 -15 -97.5t-56 -91.5q-13 -10 -19.5 -25t-4.5 -31q1 -16 10 -29.5
t23 -21.5l201 -111q2 -1 3.5 -2t2.5 -1l8 -4t7 -5v-57v0zM970 284l-204 112q56 44 77 117.5t21 121.5v135q0 34 -21 68t-55 61t-77.5 44.5t-88.5 17.5q-58 0 -113 -28t-90 -69q20 -1 41 -2t40 -7q25 19 56.5 30t65.5 11q70 0 124 -45t54 -81v-135q0 -37 -16.5 -96.5
t-57.5 -92.5q-13 -10 -19.5 -25t-4.5 -31q1 -16 10 -29.5t23 -21.5l204 -111q2 -1 3.5 -1.5t2.5 -1.5q4 -1 8 -3.5t7 -4.5v-57h-129q14 -11 20.5 -27t12.5 -37h106q22 0 38 15.5t16 38.5v80q0 24 -27 39l-27 15v0z" />
    <glyph glyph-name="uniE002" unicode="&#xe002;" 
d="M64 65q0 19 10.5 27t16.5 10l281 133q15 7 25 20.5t12 29.5q2 17 -4.5 32.5t-19.5 25.5q-50 40 -73.5 113t-23.5 120v160q0 25 19.5 53t51.5 52t72 39.5t81 15.5t81 -15.5t71.5 -39t51.5 -51.5t20 -54v-160q0 -46 -21.5 -119.5t-73.5 -113.5q-13 -11 -19 -26t-5 -32
q2 -17 12 -30.5t25 -20.5l96 -45l16 64l-85 39q33 27 56 63.5t37 76t20 77.5t6 67v160q0 40 -25.5 80t-66 72t-92 52t-104.5 20t-104.5 -20t-92.5 -52t-66 -72t-25 -80v-160q0 -26 6 -63.5t20.5 -77.5t37.5 -77.5t57 -64.5l-281 -133l-32 -18.5t-32 -45.5v-96q0 -26 19 -45
t45 -19h704v64h-704v65v0zM992 128h-96v96q0 13 -9.5 22.5t-22.5 9.5t-22.5 -9.5t-9.5 -22.5v-96h-96q-13 0 -22.5 -9.5t-9.5 -22.5t9.5 -22.5t22.5 -9.5h96v-96q0 -13 9.5 -22.5t22.5 -9.5t22.5 9.5t9.5 22.5v96h96q13 0 22.5 9.5t9.5 22.5t-9.5 22.5t-22.5 9.5z" />
    <glyph glyph-name="uniE003" unicode="&#xe003;" 
d="M64 0v65q0 19 10.5 26.5t15.5 10.5l281 133q15 7 25 20.5t12 29.5q2 17 -4 32t-19 26q-50 40 -74 113t-24 120v160q0 25 20 53t52 52t72 39.5t80 15.5q41 0 81 -15.5t72 -39t51.5 -51.5t19.5 -54v-160q0 -46 -21.5 -119.5t-72.5 -113.5q-13 -11 -19.5 -26.5t-4.5 -31.5
q2 -17 12 -30.5t25 -20.5l162 -77l38 54l-173 81q33 26 55.5 63t36.5 76.5t20 77.5t6 67v160q0 40 -25 80t-66 72t-92.5 52t-104.5 20t-104.5 -20t-92.5 -52t-66 -72t-25 -80v-160q0 -26 6.5 -63.5t21 -77.5t37.5 -77.5t56 -64.5l-281 -133l-31.5 -18.5t-31.5 -45.5v-96
q0 -26 18.5 -45t44.5 -19h640l-52 64h-587v0zM1012 236q-10 9 -23.5 7t-21.5 -12l-137 -209l-85 85q-9 10 -22.5 10t-22.5 -10q-9 -9 -9 -22t9 -23l113 -113q10 -9 23 -9t23 9q2 2 3.5 4.5t2.5 5.5l153 233q8 10 6.5 23t-12.5 21v0z" />
    <glyph glyph-name="uniE004" unicode="&#xe004;" 
d="M799 576v160q0 40 -25 80t-66 72t-92.5 52t-104.5 20t-104.5 -20t-92.5 -52t-66 -72t-25 -80v-160q0 -26 6.5 -63.5t21 -77t37.5 -77.5t56 -65l-281 -133l-32 -18.5t-32 -45.5v-96q0 -26 19 -45t45 -19h608v64h-608v65q0 19 10.5 27t16.5 10l281 133q15 7 25 20.5
t12 29.5q2 17 -4 32.5t-19 25.5q-50 40 -74 113t-24 120v160q0 25 20 53t52 52t72 39.5t80 15.5q41 0 81 -15.5t72 -39t51.5 -51.5t19.5 -54v-160q0 -46 -21.5 -119.5t-72.5 -113.5q-13 -11 -19.5 -26t-4.5 -32t12 -30.5t25 -20.5l18 -8l28 52l-20 15q34 26 56.5 62.5
t36.5 76t20 77.5t6 67v0zM925 81l90 91q9 9 9 22.5t-9 22.5t-22.5 9t-22.5 -9l-91 -91l-90 91q-9 9 -22.5 9t-22.5 -9q-10 -9 -10 -22.5t10 -22.5l90 -91l-90 -90q-10 -10 -10 -23t10 -23q9 -9 22.5 -9t22.5 9l90 91l91 -91q9 -9 22.5 -9t22.5 9q9 10 9 23t-9 23l-90 90v0z
" />
    <glyph glyph-name="uniE005" unicode="&#xe005;" 
d="M512 896q40 0 80.5 -15.5t72 -39t51.5 -51.5t20 -54v-160q0 -46 -21.5 -119.5t-73.5 -113.5q-13 -10 -19.5 -25.5t-4.5 -32.5t12 -30.5t25 -20.5l279 -132q1 0 13.5 -6.5t12.5 -32.5v-62l-895 -1v65q0 20 10.5 27.5t16.5 9.5l281 133q15 7 24.5 20.5t12.5 29.5
q2 17 -4.5 32.5t-19.5 25.5q-50 40 -73.5 113t-23.5 120v160q0 25 19.5 53t51.5 52t72 39.5t81 15.5zM512 960q-53 0 -105 -20t-92.5 -52t-65.5 -72t-25 -80v-160q0 -26 6 -63.5t20.5 -77t37.5 -77.5t57 -65l-281 -133l-32 -18.5t-32 -44.5v-97q0 -26 18.5 -44.5t45.5 -18.5
h896q26 0 44.5 18.5t18.5 44.5v97q0 28 -31.5 45.5l-31.5 17.5l-279 133q33 26 56 62.5t37 76t20 77.5t6 67v160q0 40 -25.5 80t-66 72t-92 52t-104.5 20v0v0z" />
    <glyph glyph-name="uniE006" unicode="&#xe006;" 
d="M736 32h-450q-13 0 -22.5 -9.5t-9.5 -22.5t9.5 -22.5t22.5 -9.5h450q13 0 22.5 9.5t9.5 22.5t-9.5 22.5t-22.5 9.5zM1017 838q-2 12 -11 19t-20 7h-157v32q0 13 -9 22.5t-23 9.5h-575q-13 0 -22.5 -9.5t-9.5 -22.5v-32h-152q-11 0 -20 -7t-11 -19q-1 -3 -4 -69t44 -124
q26 -33 67 -50t95 -19q15 -45 41.5 -84t61.5 -68.5t77 -48t88 -23.5v-223h-95q-14 0 -23 -9.5t-9 -22.5t9 -22.5t23 -9.5h258q13 0 22.5 9.5t9.5 22.5t-9.5 22.5t-22.5 9.5h-99v223q47 5 89 23.5t77 48t61.5 68.5t41.5 84q56 1 98 18.5t69 50.5q47 58 44 124t-4 69v0z
M96 685q-21 26 -25.5 59.5t-3.5 55.5h123v-108q0 -13 1 -25.5t3 -25.5q-33 3 -57.5 14t-40.5 30v0zM765 692q0 -58 -20 -108.5t-54.5 -88t-81 -59.5t-99.5 -22t-99.5 22t-81.5 59.5t-55 88t-20 108.5v172h511v-172v0zM928 685q-17 -19 -42.5 -30.5t-60.5 -13.5q2 12 3 25
t1 26v108h128q1 -22 -3.5 -55.5t-25.5 -59.5v0z" />
    <glyph glyph-name="uniE007" unicode="&#xe007;" 
d="M512 924q-106 0 -199 -40.5t-162.5 -110t-109.5 -162.5t-40 -199q0 -66 16 -128.5t47 -118.5t75.5 -103.5t101.5 -82.5q11 -7 24 -4t20 14t4 24t-14 20q-41 26 -74.5 58.5t-59.5 70.5l34 20q11 6 14.5 19t-3.5 24q-6 12 -19 15.5t-24 -3.5l-34 -19q-18 37 -29 78.5
t-14 84.5h35q14 0 23 9.5t9 22.5t-9 22.5t-23 9.5h-35q3 44 14.5 85.5t30.5 79.5l32 -19q3 -2 7.5 -3t8.5 -1q8 0 15.5 4t11.5 12q7 11 3.5 24t-14.5 19l-32 19q24 35 54 65t66 54l18 -31q4 -8 11.5 -12t16.5 -4q4 0 8 1t8 3q11 7 14.5 19.5t-3.5 24.5l-18 31
q37 18 77.5 28.5t83.5 14.5v-40q0 -14 9.5 -23t22.5 -9q14 0 23 9t9 23v40q44 -3 85.5 -14.5t79.5 -29.5l-18 -30q-6 -12 -2.5 -24.5t14.5 -19.5q4 -2 8 -3t8 -1q8 0 15.5 4t12.5 12l17 30q35 -24 65 -54t54 -65l-30 -18q-12 -6 -15 -19t3 -24q5 -8 12.5 -12t15.5 -4
q4 0 8 1t8 3l30 17q18 -37 29.5 -78.5t14.5 -85.5h-35q-13 0 -22.5 -9.5t-9.5 -22.5t9.5 -22.5t22.5 -9.5h35q-3 -43 -13.5 -83.5t-28.5 -77.5l-32 18q-12 7 -24.5 3.5t-19.5 -15.5q-6 -11 -3 -24t15 -19l32 -19q-27 -39 -61.5 -72.5t-76.5 -59.5q-11 -7 -14 -19.5t4 -24.5
q4 -7 11.5 -11t15.5 -4q4 0 8.5 1t8.5 4q57 35 102 82.5t76.5 103.5t48 119t16.5 131q0 105 -40 198t-109.5 162.5t-162.5 110t-199 40.5v0zM748 512q12 7 15 19.5t-3 24.5q-7 11 -19.5 14.5t-24.5 -2.5l-174 -101q-7 4 -14.5 6.5t-16.5 2.5q-26 0 -45 -19t-19 -45t19 -45
t45 -19t45 19t19 45v0v0l173 100v0z" />
    <glyph glyph-name="uniE008" unicode="&#xe008;" 
d="M941 770q-11 8 -33.5 16t-70 15t-126 11.5t-199.5 4.5q-261 0 -332 -16.5t-83 -24.5q-33 -19 -52.5 -67.5t-29.5 -101.5t-12.5 -100t-3.5 -65q1 -23 4 -69.5t13 -96t29 -93.5t51 -64q13 -7 84 -23.5t332 -16.5q121 0 199.5 4.5t126 11.5t70 15t33.5 15q28 21 44.5 62
t25 88t11 93t3.5 75q-1 23 -3 69.5t-10.5 97t-25 95t-45.5 65.5v0zM903 177q-8 -6 -81 -20t-310 -14q-230 0 -301.5 13t-81.5 18q-23 14 -43.5 84.5t-22.5 183.5q2 113 23 189.5t44 90.5q9 5 81 18t301 13q237 0 310 -14.5t81 -20.5q21 -14 39 -87.5t19 -187.5
q-1 -116 -19 -183.5t-39 -82.5v0zM720 473l-288 177q-7 4 -15.5 4.5t-16.5 -4.5q-7 -4 -11.5 -11.5t-4.5 -16.5v-353q0 -9 4.5 -16.5t11.5 -11.5q4 -2 8 -3t8 -1t8.5 1t7.5 4l288 176q8 5 12 12t4 16q0 8 -4 15.5t-12 11.5v0zM448 326v240l194 -120z" />
    <glyph glyph-name="uniE009" unicode="&#xe009;" 
d="M684 801q40 0 74.5 -15t60.5 -41q31 6 60.5 17t55.5 26q-10 -31 -31 -56.5t-49 -41.5q27 3 53.5 10t51.5 18q-18 -27 -41.5 -50.5t-50.5 -42.5q1 -5 1 -11v-12q0 -88 -34 -178.5t-100.5 -163.5t-164.5 -119t-224 -46q-78 0 -149.5 21t-132.5 59q11 -1 21.5 -2t22.5 -1
q64 0 122.5 20.5t105.5 56.5q-60 1 -107 36t-65 88q9 -2 17.5 -3t17.5 -1q12 0 24.5 2t23.5 5q-63 12 -105 61t-42 114v0.5v1.5q18 -10 39 -16t44 -6q-37 24 -59.5 63t-22.5 85q0 25 6.5 47.5t18.5 42.5q34 -41 76 -74t90.5 -57t102 -38.5t110.5 -17.5q-2 10 -3.5 20.5
t-1.5 20.5q0 74 54 126t130 52v0zM684 865q-47 0 -89 -16t-74.5 -44.5t-54 -67t-27.5 -82.5q-78 15 -146 55t-118 100q-9 11 -22 17t-27 6h-2.5t-2.5 -1q-15 -1 -28.5 -9t-21.5 -21q-16 -28 -25 -59.5t-9 -63.5q0 -22 4 -43t11 -40q-8 -9 -12 -20t-4 -23v-2
q0 -47 17.5 -89.5t48.5 -75.5q-2 -8 -1.5 -16.5t2.5 -16.5q11 -33 30 -60.5t44 -48.5q-17 -4 -34.5 -6t-34.5 -2q-10 0 -19 0.5t-18 1.5q-2 1 -3.5 1h-3.5q-20 0 -37 -12t-24 -31q-7 -21 0.5 -42.5t26.5 -32.5q35 -23 73 -39.5t78 -28t81.5 -17t83.5 -5.5q136 0 244.5 48.5
t184 128t116 181t42.5 205.5q22 19 42 40t36 45q6 8 9.5 18t3.5 21q0 16 -7.5 30t-19.5 22q5 19 -0.5 37.5t-20.5 30.5q-9 7 -19.5 10.5t-21.5 3.5q-8 0 -16 -2t-16 -6q-15 -10 -32 -17t-35 -12q-33 24 -71.5 37t-80.5 13v0v0z" />
    <glyph glyph-name="uniE00A" unicode="&#xe00a;" 
d="M528 896v-224h224v-96h-223v-278q0 -39 2 -64t6 -36q6 -17 30 -35t67 -18q34 0 75 11t75 36v-149q-28 -13 -54 -20t-49 -12q-23 -6 -48 -8.5t-51 -2.5q-30 0 -98 15.5t-103 104.5q-6 16 -9 39.5t-3 54.5v362h-129v98q32 0 101.5 37.5t69.5 184.5h117v0zM528 960h-117
q-26 0 -45 -18.5t-19 -45.5q0 -110 -44 -134t-63 -24q-26 0 -44.5 -18.5t-19.5 -44.5v-98q0 -13 4.5 -25t13.5 -21t21 -14t25 -5h65v-298q0 -37 4 -66t13 -51q21 -55 79.5 -108t180.5 -53q30 0 58.5 3t55.5 9l7 2q22 5 50 13t59 22q16 8 26 24t10 34v149q0 19 -9.5 34
t-25.5 24q-7 3 -14 4.5t-15 1.5q-10 0 -20 -3t-18 -9q-29 -22 -61 -28.5t-51 -6.5t-27.5 5t-9.5 7q-1 4 -2.5 20.5t-1.5 56.5v214h159q27 0 45.5 19t18.5 45v96q0 27 -18.5 45.5t-45.5 18.5h-160v160q0 27 -18.5 45.5t-45.5 18.5v0v0z" />
    <glyph glyph-name="uniE00B" unicode="&#xe00b;" 
d="M582 880q3 0 4.5 -0.5l1.5 -0.5h83v-96h-83q-34 0 -39.5 -19.5l-5.5 -19.5v-152h162l-23 -96h-139v-480h-96v480h-128v96h128v62.5v86.5q0 98 57.5 118.5t77.5 20.5zM582 944v0q-17 0 -48 -5.5t-63 -24.5q-30 -18 -59 -58.5t-29 -114.5v-85h-64q-13 0 -24.5 -5t-20.5 -14
t-14 -20.5t-5 -24.5v-96q0 -26 19 -45t45 -19h64v-415q0 -27 18.5 -45.5t45.5 -18.5h96q26 0 45 18.5t19 45.5v415h75q22 0 39 13t23 33l22 96q5 15 2 29.5t-12 26.5q-9 13 -22.5 19.5t-28.5 6.5h-98v63h64q26 0 45 19t19 45v93v1.5v1.5q0 27 -18.5 45.5t-44.5 18.5h-82
q-2 0 -4 0.5t-4 0.5v0v0z" />
    <glyph glyph-name="uniE00C" unicode="&#xe00c;" 
d="M1023 735q0 8 -4 14.5t-11 10.5l-285 178q-8 6 -18.5 5t-18.5 -7l-174 -141l-174 141q-8 6 -18.5 7t-18.5 -5l-285 -178q-7 -4 -11 -10.5t-4 -14.5q-1 -7 2 -14.5t9 -12.5l165 -138l-141 -112q-7 -4 -10 -11t-3 -15q1 -8 4.5 -14.5t10.5 -10.5l131 -88q-5 -4 -8 -10
t-3 -13v-129q0 -8 4 -15t11 -12l322 -182q4 -3 8.5 -4t8.5 -1t8.5 1t8.5 4l318 182q7 5 11 12t4 15v151v3.5v2.5l124 83q6 4 10 10.5t4 14.5t-3 15t-9 11l-141 112l165 138q6 5 9 12.5t2 14.5v0zM737 569l-225 -140l-225 140l225 147l225 -147v0zM87 729l228 143l143 -115
l-228 -148l-143 120v0zM230 530l226 -142l-128 -98l-218 145l120 95v0zM222 284l89 -60q9 -5 19 -5t19 6l129 99v-282l-256 143v99v0zM798 185l-256 -145v287l133 -102q4 -3 9 -4.5t10 -1.5t9.5 1.5t8.5 3.5l86 58v-97v0zM913 436l-218 -146l-127 98l226 142l119 -94v0z
M794 609l-228 148l143 115l228 -143z" />
    <glyph glyph-name="uniE00D" unicode="&#xe00d;" 
d="M512 960q-52 0 -102 -10.5t-95 -29.5q-2 0 -3.5 -1t-2.5 -2q-68 -29 -125 -76.5t-97.5 -108.5t-63.5 -133t-23 -151q0 -106 40.5 -199t110 -162.5t162.5 -110t199 -40.5t199 40.5t162.5 110t110 162.5t40.5 199t-40.5 199t-110 162.5t-162.5 110t-199 40.5v0zM960 448
v-5.5t-1 -5.5q-18 5 -50 11t-74 8.5t-93.5 0t-108.5 -15.5q-10 23 -21.5 47t-24.5 48l-2 4l-2 4q62 24 106.5 51t75.5 54t50.5 52t30.5 45q26 -30 47.5 -64t36 -72t22.5 -78.5t8 -83.5v0zM798 793q-12 -27 -62.5 -85t-182.5 -107q-30 54 -56 97.5t-48 77t-40 58.5t-31 41
q32 10 65.5 15.5t68.5 5.5q81 0 154 -27.5t132 -75.5zM316 850q20 -24 66 -89.5t109 -180.5q-75 -23 -142 -34t-121.5 -14.5t-94.5 -2.5t-61 3q10 53 32 100.5t53.5 88.5t71.5 74t87 55v0zM64 448q0 5 0.5 10t0.5 11q14 -2 36.5 -3.5t51.5 -1.5q33 0 73.5 2.5t87 9t99 18
t109.5 29.5l4 -8t5 -9q10 -20 20 -41t19 -41q-20 -6 -41 -14t-43 -18q-68 -31 -119 -67t-87 -70.5t-58.5 -65t-33.5 -49.5q-29 30 -52 65t-39 74t-24.5 81.5t-8.5 87.5v0zM236 96q6 11 24 38t51 61t82.5 70.5t119.5 68.5q21 10 41.5 17.5t40.5 13.5q23 -58 38.5 -110t26 -95
t16 -75t7.5 -51q-39 -16 -82.5 -25t-88.5 -9q-78 0 -148.5 25.5t-127.5 70.5v0zM744 65q-4 23 -10 56t-16.5 73t-25 87.5t-34.5 99.5q55 11 104 12t88 -2.5t65.5 -9t37.5 -8.5q-8 -49 -26.5 -94t-45.5 -84.5t-62 -72t-75 -57.5z" />
    <glyph glyph-name="uniE00E" unicode="&#xe00e;" 
d="M908 816q-9 8 -20.5 12.5t-23.5 4.5h-2h-2t-8 -0.5t-19 -0.5q-20 0 -55.5 2.5t-72.5 11.5q-48 12 -95.5 52t-63.5 50q-8 6 -17 8.5t-18 2.5q-10 0 -19 -2.5t-17 -8.5q-2 -1 -50 -44.5t-105 -57.5q-37 -9 -73 -11.5t-56 -2.5q-12 0 -19 0.5t-8 0.5h-2h-2q-12 0 -23.5 -4.5
t-20.5 -13.5q-10 -9 -15 -21t-5 -25v-160q0 -222 60.5 -354t134.5 -202t138 -92t70 -23q3 -1 6 -1h6h5t6 1q6 1 70.5 23t139 92t135.5 202t61 354v160q0 13 -5 25t-15 22v0zM864 609q0 -205 -55 -325.5t-121.5 -183t-121.5 -81l-55 -18.5l-55 18.5t-121 81t-120.5 183
t-54.5 325.5v132v28l8.5 -0.5t22.5 -0.5q26 0 65 3t80 13q66 16 120.5 63.5l54.5 47.5l56 -47.5t122 -63.5q41 -10 79.5 -13t64.5 -3q14 0 22.5 0.5l8.5 0.5v-28v-132v0zM648 614q-10 9 -23 9t-23 -9l-90 -91l-91 91q-9 9 -22.5 9t-22.5 -9q-9 -10 -9 -23t9 -22l91 -91
l-91 -91q-9 -9 -9 -22t9 -23q9 -9 22.5 -9t22.5 9l91 91l90 -91q10 -9 23 -9t23 9q9 10 9 23t-9 22l-91 91l91 91q9 9 9 22t-9 23v0z" />
    <glyph glyph-name="uniE00F" unicode="&#xe00f;" 
d="M832 960h-640q-40 0 -68 -28t-28 -68v-832q0 -40 28 -68t68 -28h640q40 0 68 28t28 68v832q0 40 -28 68t-68 28zM864 32q0 -13 -9.5 -22.5t-22.5 -9.5h-640q-13 0 -22.5 9.5t-9.5 22.5v832q0 13 9.5 22.5t22.5 9.5h640q13 0 22.5 -9.5t9.5 -22.5v-832zM512 160
q-26 0 -45 -19t-19 -45t19 -45t45 -19t45 19t19 45t-19 45t-45 19zM576 864h-128q-13 0 -22.5 -9.5t-9.5 -22.5t9.5 -22.5t22.5 -9.5h128q13 0 22.5 9.5t9.5 22.5t-9.5 22.5t-22.5 9.5z" />
    <glyph glyph-name="uniE010" unicode="&#xe010;" 
d="M704 960h-384q-40 0 -68 -28t-28 -68v-832q0 -40 28 -68t68 -28h384q40 0 68 28t28 68v832q0 40 -28 68t-68 28zM736 32q0 -13 -9.5 -22.5t-22.5 -9.5h-384q-13 0 -22.5 9.5t-9.5 22.5v832q0 13 9.5 22.5t22.5 9.5h384q13 0 22.5 -9.5t9.5 -22.5v-832zM512 160
q-26 0 -45 -19t-19 -45t19 -45t45 -19q27 0 45.5 19t18.5 45t-18.5 45t-45.5 19zM576 864h-128q-13 0 -22.5 -9.5t-9.5 -22.5t9.5 -22.5t22.5 -9.5h128q13 0 22.5 9.5t9.5 22.5t-9.5 22.5t-22.5 9.5z" />
    <glyph glyph-name="uniE011" unicode="&#xe011;" 
d="M960 864h-896q-26 0 -45 -18.5t-19 -45.5v-544q0 -26 19 -45t45 -19h416v-96h-160q-13 0 -22.5 -9.5t-9.5 -22.5t9.5 -22.5t22.5 -9.5h384q13 0 22.5 9.5t9.5 22.5t-9.5 22.5t-22.5 9.5h-160v96h416q26 0 45 19t19 45v544q0 27 -19 45.5t-45 18.5zM960 256h-896v544h896
v-544z" />
    <glyph glyph-name="uniE012" unicode="&#xe012;" 
d="M934 894v0q8 0 13.5 -1t8.5 -2q3 -9 1 -38.5t-36 -63.5l-231 -231l2 -28q3 -45 7 -118t9 -142q3 -61 6 -111t4 -55q0 -3 -0.5 -5t-3.5 -6q-7 -8 -19 -21.5t-23 -25.5q-9 24 -21.5 58t-26.5 71.5t-27 73.5t-23 64l-35 94l-71 -71l-130 -125l-19 -19v-25v-41v-49v-31.5
v-22.5q-1 -1 1.5 -1.5t1.5 -0.5q-2 3 -4 6.5t-4 7.5q-20 31 -43 68t-31 50l-9 13l-13 9q-36 22 -73 45t-62 39q1 0 1.5 -1.5t1.5 -1.5h2h20h26q19 0 39 -0.5t37 -0.5h11.5h9.5l26 1l18 18l126 130l71 71l-94 34q-27 10 -63.5 23.5t-74.5 27.5t-73 27t-58 22q12 12 25 23.5
t22 18.5q2 2 4 3t3 1h2q6 0 61 -3.5t119 -7.5q67 -5 136.5 -9.5t112.5 -6.5l29 -2l231 231q24 24 46 30.5t34 6.5v0zM934 958q-28 0 -61 -12.5t-64 -43.5l-211 -210q-44 2 -116 7t-140.5 9.5t-119.5 7.5t-54 3h-2h-3q-8 0 -20.5 -3t-27.5 -15q-18 -15 -45.5 -40.5
l-27.5 -25.5q-9 -9 -13.5 -19.5t-2.5 -21.5q0 -6 5 -16t21 -16q4 -1 39.5 -14.5t82.5 -31t97 -36t85 -31.5l-126 -130h-9.5h-10.5q-29 0 -66.5 0.5t-55.5 0.5h-4h-3q-6 0 -19.5 -2.5t-42.5 -26.5l-3 -3q-9 -9 -12 -17.5t-3 -14.5t2.5 -14t11.5 -15q5 -4 60 -39t110 -68
q7 -11 23 -37t33.5 -54t31.5 -50t15 -24q5 -8 12.5 -12.5t16.5 -4.5v0h1q8 0 17 4.5t18 12.5q26 30 27.5 43.5t1.5 18.5q1 17 0.5 69t0.5 79l130 126q13 -34 31 -84t35.5 -96.5t30.5 -81.5t15 -40q6 -15 15.5 -20t15.5 -6h2.5h2.5q9 0 18.5 4.5t17.5 12.5l25.5 27.5
t40.5 45.5t17 32t1 22q0 2 -3 52.5t-7 119t-8.5 139.5t-6.5 115l211 211q56 56 55.5 114t-20.5 78q-10 10 -27.5 16t-40.5 6v0v0z" />
    <glyph glyph-name="uniE013" unicode="&#xe013;" 
d="M849 960h-638q-34 0 -50 -21t-16 -45v-127h-35q-13 0 -22 -9.5t-9 -22.5t9 -22t22 -9h35v-129h-32q-13 0 -22 -9t-9 -22t9 -22t22 -9h32v-130h-33q-12 0 -21.5 -9t-9.5 -22t9.5 -22.5t21.5 -9.5h33v-128h-33q-12 0 -21.5 -9t-9.5 -22t9.5 -22.5t21.5 -9.5h33v-129
q0 -40 23.5 -52t41.5 -12h639q40 0 68 28t28 68v832q0 40 -28 68t-68 28v0zM209 0v129h33q13 0 22.5 9.5t9.5 22.5t-9.5 22t-22.5 9h-33v128h33q13 0 22.5 9.5t9.5 22.5t-9.5 22t-22.5 9h-33v130h34q13 0 22 9t9 22t-9 22t-22 9h-34v129h31q13 0 22 9t9 22t-9 22.5t-22 9.5
h-31v127v1.5v0.5h1.5h0.5h510v-896h-512v0zM881 32q0 -13 -9.5 -22.5t-22.5 -9.5h-64v896h64q13 0 22.5 -9.5t9.5 -22.5v-832z" />
    <glyph glyph-name="uniE014" unicode="&#xe014;" 
d="M793 223q-76 0 -122.5 28t-74.5 51q-10 9 -19.5 17t-17.5 15q-13 11 -26.5 22.5t-18.5 13.5h-2h-2q-1 0 -2.5 -0.5t-2.5 -0.5q-4 -1 -15 -10.5t-22 -19.5q-10 -8 -21.5 -17.5t-23.5 -19.5l-3 -2q-33 -26 -77.5 -51t-116.5 -25q-53 0 -102 22.5t-80 60.5q-21 26 -37 72
t-2 114q2 8 7.5 14.5t13.5 9.5q7 2 15.5 0.5t14.5 -6.5q1 0 16.5 -8.5t42.5 -8.5q14 0 28.5 3t28.5 10q25 11 44 37t38 47q25 28 57 54.5t80 27.5q33 0 62.5 -12.5t56.5 -36.5q26 24 55.5 36t61.5 12q49 0 81.5 -26.5t58.5 -55.5q19 -20 38.5 -46t44.5 -37q14 -7 28.5 -10
t28.5 -3q28 0 45 8.5t17 9.5q7 5 15 6t16 -2t13 -9.5t7 -14.5q12 -67 -4 -112.5t-38 -71.5q-32 -39 -81.5 -62t-103.5 -23zM511 434h2h2h2.5h2.5l1.5 -0.5l1.5 -0.5q18 -2 35.5 -15.5t42.5 -35.5q8 -7 16.5 -14.5t18.5 -15.5q26 -22 62 -43.5t95 -21.5q40 0 76.5 16.5
t60.5 45.5q15 19 23 41t8 48q-11 -4 -24.5 -6t-29.5 -2q-21 0 -41.5 4.5t-41.5 13.5q-34 15 -58.5 46t-45.5 53q-26 28 -46 44.5t-46 16.5q-34 0 -57 -17t-37 -33q-5 -6 -11 -9t-13 -3v0q-7 0 -13.5 3t-10.5 9q-14 16 -37 33.5t-57 17.5q-26 0 -46 -16.5t-45 -44.5
q-20 -23 -44.5 -54t-58.5 -46q-21 -9 -41.5 -13.5t-41.5 -4.5q-15 0 -28 2t-24 6q0 -26 7.5 -48.5t22.5 -41.5q22 -28 58 -44t75 -16q56 0 90.5 19.5t64.5 42.5l3 3q12 9 22.5 18t20.5 17q21 19 36.5 30.5t30.5 14.5v0l6 0.5t11 0.5v0z" />
    <glyph glyph-name="uniE015" unicode="&#xe015;" 
d="M514 960q-60 0 -112.5 -22.5t-92 -61.5t-62.5 -91t-23 -111v-452q0 -59 23 -111t62.5 -91t92 -61.5t112.5 -22.5q59 0 111 22.5t91 61.5t61.5 91t22.5 111v452q0 59 -22.5 111t-61.5 91t-91 61.5t-111 22.5zM736 222q0 -46 -17.5 -86.5t-47.5 -70.5t-70.5 -47.5
t-86.5 -17.5t-87 17.5t-72 47.5t-49 70.5t-18 86.5v452q0 46 18 86.5t49 70.5t72 47.5t87 17.5t86.5 -17.5t70.5 -47.5t47.5 -70.5t17.5 -86.5v-452zM512 768q-13 0 -22.5 -9.5t-9.5 -22.5v-160q0 -13 9.5 -22.5t22.5 -9.5q14 0 23 9.5t9 22.5v160q0 13 -9 22.5t-23 9.5z
" />
    <glyph glyph-name="uniE016" unicode="&#xe016;" 
d="M960 900v29q0 13 -9 22.5t-23 9.5h-224q-14 0 -23 -9.5t-9 -22.5v-131v0v0v-397q0 -73 -39.5 -124t-111.5 -51t-120.5 51t-48.5 124v499v0v29q0 13 -9 22.5t-23 9.5h-224q-14 0 -23 -9.5t-9 -22.5v-131v-0.5v-1.5v-410q0 -94 35 -176t95.5 -143t142 -96.5t175.5 -35.5
q93 0 175 35.5t142.5 96.5t95.5 143t35 176v514v0v0zM896 897v-129h-160v129h160zM288 897v-129h-160v129h160zM512 -1q-80 0 -150 30.5t-122 83t-82 123t-30 150.5v318h160v-303q0 -50 18 -93.5t49.5 -76t74 -51t91.5 -18.5t89 18.5t68 51t43 76t15 93.5v303h160v-318
q0 -80 -30 -150.5t-82 -123t-122 -83t-150 -30.5v0z" />
    <glyph glyph-name="uniE017" unicode="&#xe017;" 
d="M1021 531l-103 153l51 179q2 9 0 17t-8 15q-7 6 -15 8t-17 0l-178 -52l-155 103q-7 5 -15.5 5.5t-16.5 -3.5t-12.5 -11t-5.5 -16l-5 -186l-147 -115q-6 -5 -9.5 -13t-1.5 -17q1 -9 6.5 -15.5t13.5 -9.5l138 -49l-1.5 -1.5l-1.5 -1.5l-531 -530q-9 -10 -9 -23t9 -23
q5 -4 11 -6.5t12 -2.5t12 2.5t11 6.5l530 531q2 2 3 3.5t2 3.5l54 -148q3 -8 10 -13.5t15 -6.5q2 0 3 -0.5t2 -0.5q8 0 14.5 3.5t11.5 9.5l113 147l184 7q9 0 16.5 4.5t11.5 12.5t3 16.5t-5 16.5v0zM794 537q-7 0 -13.5 -3t-10.5 -9l-88 -113l-49 134q-2 7 -7 12t-12 7
l-134 49l112 88q6 4 9 10.5t3 13.5l5 143l118 -80q6 -4 13 -5t14 1l137 40l-39 -137q-2 -7 -1 -14t5 -13l81 -118l-143 -6v0z" />
    <glyph glyph-name="uniE018" unicode="&#xe018;" 
d="M833 895h-64v-215q0 -78 -43.5 -138.5t-135.5 -106.5q95 -48 137.5 -110t42.5 -149q0 -57 -0.5 -103t-0.5 -72h64q13 0 22.5 -9.5t9.5 -22.5q0 -14 -9.5 -23t-22.5 -9h-642q-13 0 -22.5 9t-9.5 23q0 13 9.5 22.5t22.5 9.5h66q0 26 -0.5 72t-0.5 103q0 87 42 149t136 110
q-90 46 -133.5 106.5t-43.5 138.5v215h-66q-13 0 -22.5 9.5t-9.5 22.5q0 14 9.5 23t22.5 9h642q13 0 22.5 -9t9.5 -23q0 -13 -9.5 -22.5t-22.5 -9.5v0zM320 176q0 -58 0.5 -103.5t0.5 -71.5h384q0 26 0.5 72t0.5 103q0 66 -37 120t-157 104q-120 -50 -156 -104t-36 -120z
M705 895h-384v-215q0 -46 32 -102t159 -109q128 53 160.5 109t32.5 102v215z" />
    <glyph glyph-name="uniE019" unicode="&#xe019;" 
d="M991 264v258l16 8q8 4 12.5 12t4.5 16q0 9 -4.5 16.5t-11.5 12.5l-482 257q-7 4 -15.5 4t-15.5 -4l-479 -258q-7 -4 -11.5 -11.5t-4.5 -16.5t4.5 -16.5t12.5 -11.5l210 -112q-2 -3 -3 -7t-1 -8v-271q0 -7 2.5 -13.5t8.5 -10.5q5 -5 64.5 -32.5t211.5 -27.5t212.5 26
t65.5 31q6 4 9 10.5t3 13.5v278q0 3 -0.5 6.5t-2.5 6.5l130 68v-224q-14 -9 -23 -23.5t-9 -32.5q0 -26 18.5 -45t45.5 -19t45.5 19t18.5 45q0 18 -9 32.5t-23 23.5v0zM736 148q-19 -9 -72 -22.5t-154 -13.5t-153.5 14t-69.5 23v237l208 -110q3 -2 7 -3t8 -1t7.5 1t7.5 3
l211 111v-239v0zM510 340l-412 219l413 221l413 -221z" />
    <glyph glyph-name="uniE01A" unicode="&#xe01a;" 
d="M512 960q-86 0 -161.5 -35t-132 -95.5t-89.5 -141.5t-33 -173v-547q0 -10 6 -18t15 -12q3 -1 5.5 -1.5t5.5 -0.5q7 0 13 2.5t11 7.5l121 134l94 -131q5 -6 11.5 -9.5t14.5 -3.5v0q8 0 14.5 3.5t11.5 9.5l94 127l94 -127q4 -6 11 -9.5t14 -3.5q8 0 15 3.5t11 9.5l96 130
l118 -132q6 -8 16 -10.5t19 1.5t15 12t6 18v547q0 92 -33 173t-89.5 141.5t-132 95.5t-161.5 35v0zM864 52l-89 99q-5 6 -11.5 8.5t-13.5 2.5t-13.5 -3.5t-10.5 -9.5l-94 -127l-93 127q-4 6 -11 9.5t-14 3.5v0q-8 0 -15 -3.5t-11 -9.5l-95 -127l-92 127q-4 6 -10.5 9.5
t-13.5 3.5h-0.5h-1.5q-6 0 -12.5 -2.5t-10.5 -7.5l-92 -101v464q0 78 28 147.5t75.5 121.5t111.5 82t137 30t137 -30t111.5 -82t75.5 -121.5t28 -147.5v-463v0zM672 608q-26 0 -45 -19t-19 -45t19 -45t45 -19t45 19t19 45t-19 45t-45 19v0zM352 608q-26 0 -45 -19t-19 -45
t19 -45t45 -19t45 19t19 45t-19 45t-45 19v0z" />
    <glyph glyph-name="uniE01B" unicode="&#xe01b;" 
d="M743 884q-19 9 -37 18t-35 17q-42 21 -80.5 31.5t-75.5 10.5q-74 0 -125.5 -34t-83.5 -65l-207 -208q-41 -41 -65.5 -83.5t-31.5 -87.5t3 -93t37 -101q8 -17 16.5 -35t17.5 -37q24 -52 49.5 -102.5t54.5 -90.5t62.5 -64.5t74.5 -24.5h5h4q43 4 71.5 30.5t47.5 66.5
t31.5 89t23.5 97q3 15 6.5 29.5t6.5 27.5q6 23 19.5 41.5t43.5 48.5l6 6l4 4l9 9q31 30 49 44t41 19q13 4 27.5 7t29.5 6q48 11 97 23.5t89 32t66.5 47.5t29.5 71q4 43 -19.5 78t-64 65t-92 56t-105.5 51v0zM958 640q-2 -30 -33 -50.5t-75 -35t-93.5 -24.5t-89.5 -20
q-35 -9 -60.5 -28.5t-57.5 -51.5l-5 -5t-5 -4q-2 -3 -4 -5t-5 -4q-32 -33 -51.5 -58.5t-27.5 -60.5q-10 -40 -20.5 -89.5t-25 -94t-34.5 -75t-50 -33.5h-2.5h-2.5q-31 0 -60.5 32t-56.5 80t-52 103.5t-49 102.5q-48 95 -32 162.5t77 129.5q12 12 27 26.5t32 32.5
q19 18 41 40t47 48q18 18 33 32.5t27 26.5q38 38 77.5 59.5t85.5 21.5q29 0 60.5 -8.5t67.5 -26.5q48 -24 104.5 -50t104.5 -53.5t79.5 -57.5t28.5 -62v0zM479 609h64v64h-64v-64zM479 705h64v64h-64v-64zM575 705h64v64h-64v-64zM575 609h64v64h-64v-64zM330 417l24 24
q9 9 9 21.5t-9 21.5t-21.5 9t-21.5 -9l-25 -24l-24 24q-9 9 -21.5 9t-21.5 -9t-9 -21.5t9 -21.5l24 -24l-24 -25q-9 -9 -9 -21.5t9 -21.5t21.5 -9t21.5 9l24 24l25 -25q9 -9 22 -9t22 9t9 22t-9 22z" />
    <glyph glyph-name="uniE01C" unicode="&#xe01c;" 
d="M508 -63q-90 0 -166 29.5t-130.5 82.5t-85 126t-30.5 159q0 46 11.5 91.5t25.5 82.5t26 60.5t14 25.5q4 9 13 13t18 3q10 -1 17.5 -7.5t9.5 -15.5q1 -1 14 -43t32 -73q14 -21 27.5 -36t28.5 -25q-10 44 -15 107t8 131q17 93 57 152.5t82 94.5t75 48.5t36 14.5q8 2 16 0
t15 -7q6 -6 8.5 -14t0.5 -16l-4 -30t-3.5 -77t9.5 -104t34 -113q5 -10 11.5 -21.5t13.5 -23.5q2 16 5 33t8 34q18 66 54.5 92t38.5 27q8 4 16.5 3t15.5 -7q7 -5 10.5 -13.5t1.5 -17.5q0 -2 1.5 -42.5t40.5 -104.5q34 -57 46.5 -103.5t12.5 -118.5q0 -86 -31.5 -159
t-87.5 -126t-132.5 -82.5t-168.5 -29.5v0zM196 492q-13 -33 -24.5 -75t-11.5 -82q0 -73 25.5 -134t72 -105.5t110.5 -69.5t140 -25q78 0 143 25t112.5 69.5t74 105.5t26.5 134q0 62 -10 100t-40 88q-20 34 -31 63t-15 53q-5 -7 -9.5 -16.5t-7.5 -21.5q-14 -51 -14 -99.5
v-48.5q0 -11 -5.5 -20t-16.5 -13q-10 -3 -20 0t-16 12q-2 3 -34 50.5t-51 87.5q-19 43 -29.5 85.5t-15 82.5t-4 75t2.5 62q-39 -23 -89.5 -78.5t-69.5 -160.5q-10 -51 -7.5 -100t9.5 -87t14.5 -62l7.5 -24q3 -8 1.5 -17t-7.5 -16q-6 -6 -14.5 -9t-16.5 -1q-3 1 -56 24.5
t-97 92.5q-7 12 -14 26.5t-13 28.5v0z" />
    <glyph glyph-name="uniE01D" unicode="&#xe01d;" 
d="M1025 308q0 5 -8.5 56.5t-19 114.5t-20.5 121t-13 76q0 4 -0.5 7.5t-1.5 7.5q-5 37 -30 89t-135 52q-14 0 -23 -9.5t-9 -22.5t9 -22.5t23 -9.5q68 0 82.5 -24.5t19.5 -60.5q0 -4 0.5 -8.5t1.5 -8.5q3 -17 13.5 -75.5t21.5 -125.5q-28 21 -62.5 33.5t-72.5 12.5
q-61 0 -112.5 -30.5t-81.5 -79.5q-14 6 -38.5 11.5t-56.5 5.5q-33 0 -56.5 -5.5t-37.5 -11.5q-30 49 -80.5 79.5t-112.5 30.5q-40 0 -76 -13.5t-65 -36.5q11 67 22 127.5t14 77.5q0 4 1 8.5t1 8.5q5 36 19.5 60.5t82.5 24.5q13 0 22.5 9.5t9.5 22.5t-9.5 22.5t-22.5 9.5
q-110 0 -135.5 -52t-29.5 -89q-1 -4 -1.5 -7.5t-0.5 -7.5q-3 -18 -12.5 -75.5t-19.5 -120.5t-18 -114t-8 -56q-1 -2 -0.5 -4.5t0.5 -4.5v-6.5v-7.5q0 -46 18 -86.5t49 -71t72 -48t87 -17.5q47 0 87.5 17.5t71 48t48 71t17.5 86.5q0 14 -2 27.5t-5 26.5q10 4 27.5 8.5
t42.5 4.5q24 0 42 -4t28 -8q-4 -13 -5.5 -26.5t-1.5 -28.5q0 -46 18 -86.5t49 -71t72 -48t87 -17.5q47 0 87.5 17.5t71 48t48 71t17.5 86.5q0 3 -0.5 5.5t-0.5 4.5q1 3 1.5 5.5t-0.5 5.5v0zM225 128q-66 0 -114 47.5t-48 111.5q0 65 48 112.5t114 47.5t113 -47t47 -113
t-47 -112.5t-113 -46.5v0zM801 128q-66 0 -114 47.5t-48 111.5q0 65 48 112.5t114 47.5q57 0 100.5 -36t55.5 -89q0 -5 0.5 -9.5t0.5 -8.5q1 -2 1.5 -4t0.5 -4t0.5 -4t0.5 -5q0 -66 -47 -112.5t-113 -46.5v0z" />
    <glyph glyph-name="uniE01E" unicode="&#xe01e;" 
d="M1023 487q-1 8 -4 16t-8 14v0l-1 1q-2 3 -5 6l-6 6l-417 403q-27 27 -68 27t-68 -27l-417 -400q-7 -7 -18 -22t-11 -32v-479q0 -27 19 -45.5t45 -18.5h896q26 0 45 18.5t19 45.5v478v4.5t-1 4.5v0zM270 234l-206 -190v371zM336 207q1 1 3 2.5t3 3.5l0.5 0.5l0.5 0.5
l141 130q5 4 11.5 6.5t13.5 2.5t13.5 -2t10.5 -6l384 -345h-807l226 207v0zM757 229l203 180v-362zM104 517l387 371q5 4 11 6.5t12 2.5t12 -2.5t11 -6.5l361 -345h-1l55 -55l-242 -215l-136 121q-28 22 -64.5 22.5t-66.5 -23.5l-126 -116l-242 214l27 26h2v0z" />
    <glyph glyph-name="uniE01F" unicode="&#xe01f;" 
d="M1023 487q-1 8 -4 16t-8 14v0l-1 1q-2 3 -5 6l-6 6l-167 168v103q0 13 -9.5 22.5t-22.5 9.5h-101l-117 100q-27 27 -68 27t-68 -27l-116 -100h-106q-13 0 -22.5 -9.5t-9.5 -22.5v-105l-163 -163q-13 -9 -21 -23t-8 -31v-479q0 -27 19 -45.5t45 -18.5h896q26 0 45 18.5
t19 45.5v478v4.5t-1 4.5v0zM269 234l-205 -190v371l205 -181v0zM331 204q3 2 5.5 4t5.5 5q1 1 2 2.5t2 3.5l138 128q5 4 11.5 6.5t13.5 2.5t13.5 -2.5t10.5 -5.5l384 -348h-807l221 204v0zM758 230l202 179v-361zM898 543h-1l55 -55l-120 -107v228zM491 888q5 4 11 6.5
t12 2.5t12 -2.5t11 -6.5l64 -55h-174zM768 769v-445l-57 -51l-137 124q-28 22 -64.5 22.5t-66.5 -23.5l-127 -118l-60 53v438h512v0zM104 517l88 88v-217l-117 103l27 26h2v0z" />
    <glyph glyph-name="uniE020" unicode="&#xe020;" 
d="M595 895l-72 -379l262 -1l-356 -514l72 417l-262 1zM595 959h-2h-3q-8 -1 -14.5 -3.5t-12.5 -7.5q-4 -2 -7.5 -5t-6.5 -7q-1 -1 -1.5 -2t-1.5 -2l-359 -474q-10 -15 -11.5 -33t6.5 -34t23.5 -25.5t33.5 -9.5l185 -1l-59 -343q-4 -22 7 -41.5t31 -28.5q6 -3 12.5 -4
t13.5 -1q15 0 27 6.5t22 19.5l359 514q10 15 11.5 33t-6.5 34t-23.5 25.5t-33.5 9.5h-185l58 301q1 4 1.5 7.5t0.5 7.5q0 26 -18 44.5t-44 19.5h-1.5h-1.5v0v0z" />
    <glyph glyph-name="uniE021" unicode="&#xe021;" 
d="M781 353q-12 5 -24.5 0.5t-17.5 -16.5q0 -1 -13 -23.5t-40.5 -49.5t-71 -50t-104.5 -23q-1 0 -2 -0.5l-1 -0.5q-58 0 -99.5 22.5t-68.5 49t-40.5 50t-14.5 25.5q-6 12 -18 16.5t-24 -0.5q-13 -6 -17.5 -18t1.5 -25q1 -2 17.5 -31.5t50.5 -63t86.5 -61.5t125.5 -28
q1 0 2 0.5t2 0.5q77 0 131 28t88.5 61.5t50.5 62.5t17 32q6 12 1 24t-17 18v0zM512 960q-106 0 -199.5 -40t-163 -109.5t-109.5 -163t-40 -199.5t40 -199.5t109.5 -163t163 -109.5t199.5 -40t199.5 40t163 109.5t109.5 163t40 199.5t-40 199.5t-109.5 163t-163 109.5
t-199.5 40zM512 0q-93 0 -174.5 35.5t-142 96t-96 142t-35.5 174.5t35.5 174.5t96 142t142 96t174.5 35.5t174.5 -35.5t142 -96t96 -142t35.5 -174.5t-35.5 -174.5t-96 -142t-142 -96t-174.5 -35.5zM352 480q26 0 44.5 19t18.5 45t-18.5 45t-44.5 19q-27 0 -45.5 -19
t-18.5 -45t18.5 -45t45.5 -19zM672 480q26 0 44.5 19t18.5 45t-18.5 45t-44.5 19q-27 0 -45.5 -19t-18.5 -45t18.5 -45t45.5 -19z" />
    <glyph glyph-name="uniE022" unicode="&#xe022;" 
d="M512 960q-106 0 -199.5 -40t-163 -109.5t-109.5 -163t-40 -199.5t40 -199.5t109.5 -163t163 -109.5t199.5 -40t199.5 40t163 109.5t109.5 163t40 199.5t-40 199.5t-109.5 163t-163 109.5t-199.5 40zM960 448q0 -50 -10.5 -96.5t-30.5 -89.5l-283 152q2 8 3.5 16.5
t1.5 17.5q0 53 -38 91t-91 38q-11 0 -21.5 -2t-20.5 -5l-169 273q47 25 100.5 39t110.5 14q93 0 174.5 -35.5t142 -96t96 -142t35.5 -174.5zM512 513q27 0 46 -19t19 -46t-19 -46t-46 -19t-46 19t-19 46t19 46t46 19v0zM247 809l170 -274l-1.5 -1.5l-1.5 -1.5l-283 152
q23 36 52 67.5t64 57.5v0zM64 448q0 48 9.5 93t28.5 86l284 -152q-2 -7 -2.5 -13.5t-0.5 -13.5q0 -53 38 -91t91 -38q9 0 18 1.5t18 3.5l170 -274q-46 -24 -98 -37t-108 -13q-93 0 -174.5 35.5t-142 96t-96 142t-35.5 174.5v0zM772 84l-169 273l0.5 0.5l0.5 0.5l285 -152
q-23 -36 -52.5 -66.5t-64.5 -55.5v0z" />
    <glyph glyph-name="uniE023" unicode="&#xe023;" 
d="M1016 463l-8 8v1h-1l-129 118q-7 7 -17 7t-17 -7l-6 -8q-7 -7 -5.5 -16t8.5 -16l77 -70h-372v374l70 -77q7 -7 16 -8.5t16 5.5l8 6q7 7 7 17t-7 17l-113 124q-2 4 -5 7.5t-7 5.5l-2 1q-3 4 -7 5.5t-9 1.5q-4 0 -8.5 -1.5t-7.5 -5.5l-8 -8v0l-1 -1l-115 -127q-7 -7 -7 -17
t7 -17l8 -6q7 -7 16.5 -5.5t15.5 8.5l69 77v-375h-376l77 69q7 7 8.5 16t-5.5 16l-6 8q-7 7 -17 7t-17 -7l-124 -113q-4 -2 -7.5 -5t-5.5 -7l-1 -2q-4 -3 -5.5 -7t-1.5 -9q0 -4 1.5 -8.5t5.5 -7.5l8 -8v0l1 -1l127 -115q7 -7 17 -7t17 7l6 8q7 7 5.5 16.5t-8.5 15.5l-78 69
h379v-376l-69 77q-6 7 -15.5 8.5t-16.5 -5.5l-8 -6q-7 -7 -7 -17t7 -17l115 -127l1 -1v0l8 -8q3 -4 7.5 -5.5t8.5 -1.5q5 0 9 1.5t7 5.5l8 8h1v1l118 129q7 7 7 17t-7 17l-8 6q-7 7 -16 5.5t-16 -8.5l-69 -77v374h373l-77 -69q-7 -6 -8.5 -15.5t5.5 -16.5l6 -8q7 -7 17 -7
t17 7l127 115l1 1v0l8 8q4 3 5.5 7.5t1.5 8.5q0 5 -1.5 9t-5.5 7v0z" />
    <glyph glyph-name="uniE024" unicode="&#xe024;" 
d="M992 160h-128v594l119 119q10 10 10 23t-10 22q-9 10 -22 10t-23 -10l-118 -118h-596v128q0 13 -9.5 22.5t-22.5 9.5t-22.5 -9.5t-9.5 -22.5v-128h-128q-13 0 -22.5 -9.5t-9.5 -22.5t9.5 -22.5t22.5 -9.5h128v-608q0 -2 0.5 -4t1.5 -4v-2v-2q3 -6 7.5 -10.5t10.5 -7.5h2
h2q2 -1 4 -1.5t4 -0.5h608v-128q0 -13 9.5 -22.5t22.5 -9.5t22.5 9.5t9.5 22.5v128h128q13 0 22.5 9.5t9.5 22.5t-9.5 22.5t-22.5 9.5v0zM755 736l-531 -531v531h531zM269 160l531 530v-530h-531z" />
    <glyph glyph-name="uniE025" unicode="&#xe025;" 
d="M928 784h-832q-40 0 -68 -28t-28 -68v-480q0 -40 28 -68t68 -28h832q40 0 68 28t28 68v480q0 40 -28 68t-68 28zM96 720h832q13 0 22.5 -9.5t9.5 -22.5v-64h-896v64q0 13 9.5 22.5t22.5 9.5zM928 176h-832q-13 0 -22.5 9.5t-9.5 22.5v288h896v-288q0 -13 -9.5 -22.5
t-22.5 -9.5z" />
    <glyph glyph-name="uniE026" unicode="&#xe026;" 
d="M810 -11l-170 202v353h21q14 0 23 9.5t9 22.5q0 14 -9 23t-23 9h-53q-13 0 -22.5 -9t-9.5 -23v-397q0 -6 2 -11.5t6 -10.5l131 -157h-406l131 157q4 5 6 10.5t2 11.5v397q0 14 -9.5 23t-22.5 9h-53q-14 0 -23 -9t-9 -23q0 -13 9 -22.5t23 -9.5h21v-353l-170 -202
q-7 -7 -8.5 -16t2.5 -18t12 -14t17 -5h550q9 0 17 5t12 14t2.5 18t-8.5 16v0zM480 640q26 0 45 19t19 45q0 27 -19 45.5t-45 18.5t-45 -18.5t-19 -45.5q0 -26 19 -45t45 -19zM688 735q47 0 80 33t33 80q0 46 -33 79t-80 33q-46 0 -79 -33t-33 -79q0 -47 33 -80t79 -33z
M688 896q20 0 34 -14t14 -34t-14 -34t-34 -14t-34 14t-14 34t14 34t34 14z" />
    <glyph glyph-name="uniE027" unicode="&#xe027;" 
d="M906 248q-28 34 -58.5 80t-30.5 95v209q0 68 -23.5 127.5t-65 104t-97.5 70t-121 25.5q-64 0 -120 -25.5t-97 -70t-64.5 -104t-23.5 -127.5v-209q0 -48 -32 -92.5t-59 -79.5q-24 -32 -38 -58.5t-2 -51.5q11 -22 35.5 -27.5t47.5 -5.5h183q0 -71 50 -121t121 -50t121 50
t50 121h187q15 0 42 4t39 29t-3 50t-41 57v0zM511 4q-43 0 -73.5 30.5t-30.5 73.5h208q0 -43 -30.5 -73.5t-73.5 -30.5v0zM869 176h-712h-7h-5q5 8 11.5 17t12.5 17q29 39 66.5 93.5t37.5 119.5v209q0 54 18 101t50 82t75.5 55.5t93.5 20.5q51 0 94.5 -20.5t75.5 -55.5
t50.5 -82t18.5 -101v-209q0 -67 35.5 -122.5t68.5 -95.5q6 -7 12 -14.5t11 -14.5h-3h-4v0z" />
    <glyph glyph-name="uniE028" unicode="&#xe028;" 
d="M1021 120l-187 346q14 33 22 68.5t8 73.5q0 73 -28 137t-75.5 112t-111.5 75.5t-137 27.5t-137 -27.5t-112 -75.5t-75.5 -112t-27.5 -137q0 -39 8 -75.5t23 -69.5l-188 -343q-5 -8 -4 -17.5t7 -16.5q5 -8 14 -11.5t18 -0.5l161 36l55 -153q3 -9 10.5 -14.5t17.5 -6.5h0.5
h1.5q9 0 16.5 4.5t11.5 12.5l164 305q9 -1 18 -1.5t18 -0.5q8 0 16.5 0.5t16.5 1.5l167 -305q4 -8 11.5 -12.5t16.5 -4.5h1.5h1.5q9 1 16.5 6.5t10.5 14.5l55 153l161 -36q9 -3 18 0.5t14 10.5q6 8 7 17.5t-4 17.5v0zM290 47l-40 112q-5 11 -15.5 17t-22.5 3l-119 -27
l136 247q33 -45 79.5 -78t101.5 -50zM224 608q0 59 22.5 111.5t62 91.5t91.5 62t112 23q59 0 111.5 -23t91.5 -62t61.5 -91.5t22.5 -111.5t-22.5 -111.5t-61.5 -91.5t-91.5 -62t-111.5 -23q-60 0 -112 23t-91.5 62t-62 91.5t-22.5 111.5zM812 179q-12 3 -22.5 -3t-15.5 -17
l-40 -113l-123 224q56 17 103.5 51t81.5 80l135 -249l-119 27v0z" />
    <glyph glyph-name="uniE029" unicode="&#xe029;" 
d="M1021 229l-82 151v0v0l-6 11q-3 4 -6.5 6.5t-8.5 3.5q-4 1 -8.5 0.5t-8.5 -3.5l-10 -6v0v-1l-146 -98q-8 -5 -10.5 -14.5t2.5 -18.5l7 -7q5 -8 14.5 -9t17.5 4l87 60q-8 -63 -35.5 -116.5t-70 -94.5t-97 -66.5t-116.5 -31.5v642h128q13 0 22.5 9.5t9.5 22.5t-9.5 22.5
t-22.5 9.5h-129q-1 1 -1 1.5v0.5q43 10 71 45t28 81q0 53 -37.5 91t-91.5 38q-53 0 -91 -38t-38 -91q0 -46 28.5 -80.5t70.5 -44.5v-1.5t-1 -1.5h-129q-13 0 -22.5 -9.5t-9.5 -22.5t9.5 -22.5t22.5 -9.5h128v-642q-62 6 -116.5 31.5t-97 66.5t-70 94.5t-35.5 116.5l87 -60
q8 -5 17.5 -4t14.5 9l7 7q5 9 2.5 18.5t-10.5 14.5l-146 99v0v0l-10 6q-4 3 -8.5 3.5t-8.5 -0.5q-5 -1 -8.5 -3.5t-6.5 -6.5l-6 -11v0v0l-82 -151q-5 -9 -2.5 -18.5t10.5 -14.5l9 -4q8 -5 17 -1.5t14 12.5l48 89q11 -77 47.5 -142.5t92 -113.5t125.5 -75t148 -27t148 27
t125.5 75t92 113.5t47.5 142.5l48 -89q5 -9 14 -12.5t17 1.5l9 4q8 5 10.5 14.5t-2.5 18.5v0zM448 833q0 27 19 46t45 19q27 0 46.5 -19t19.5 -46t-19.5 -46t-46.5 -19q-26 0 -45 19t-19 46v0z" />
    <glyph glyph-name="uniE02A" unicode="&#xe02a;" 
d="M1024 670q0 17 -12 50t-66 48l-723 144q-39 0 -67.5 -28t-28.5 -68v-128h-32q-39 -1 -67 -29t-28 -67v-512q0 -40 28 -68t68 -28h832q40 0 68 28t28 68v590v0zM191 816q0 13 8.5 22t21.5 10l706 -143l-6 -9t-25 -8h-705v128v0zM960 80q0 -13 -9.5 -22.5t-22.5 -9.5h-832
q-13 0 -22.5 9.5t-9.5 22.5v512q0 13 9.5 22.5t22.5 9.5h800q23 0 43.5 8t20.5 24v-576v0zM192 400q-27 0 -45.5 -19t-18.5 -45q0 -27 18.5 -45.5t45.5 -18.5q26 0 45 18.5t19 45.5q0 26 -19 45t-45 19z" />
    <glyph glyph-name="uniE02B" unicode="&#xe02b;" 
d="M992 288h-32v2q0 60 -15.5 116.5t-44 105.5t-68.5 90t-88 70h161q8 -14 22.5 -23t32.5 -9q27 0 45.5 18.5t18.5 45.5t-18.5 45.5t-45.5 18.5q-18 0 -32.5 -9t-22.5 -23h-297v32q0 13 -9.5 22.5t-22.5 9.5h-128q-13 0 -22.5 -9.5t-9.5 -22.5v-32h-297q-8 14 -22.5 23
t-32.5 9q-27 0 -45.5 -18.5t-18.5 -45.5t18.5 -45.5t45.5 -18.5q18 0 32.5 9t22.5 23h161q-49 -29 -88.5 -70t-68 -90t-44 -105.5t-15.5 -116.5v-2h-32q-13 0 -22.5 -9.5t-9.5 -22.5v-128q0 -13 9.5 -22.5t22.5 -9.5h128q13 0 22.5 9.5t9.5 22.5v128q0 13 -9.5 22.5
t-22.5 9.5h-32v2q0 67 22 127t60.5 109t91 84t114.5 51v-21q0 -13 9.5 -22.5t22.5 -9.5h128q13 0 22.5 9.5t9.5 22.5v21q62 -16 114.5 -51t91 -84t60.5 -109t22 -127v-2h-32q-13 0 -22.5 -9.5t-9.5 -22.5v-128q0 -13 9.5 -22.5t22.5 -9.5h128q13 0 22.5 9.5t9.5 22.5v128
q0 13 -9.5 22.5t-22.5 9.5zM128 160h-64v64h64v-64zM544 672h-64v64h64v-64zM960 160h-64v64h64v-64z" />
    <glyph glyph-name="uniE02C" unicode="&#xe02c;" 
d="M960 896h-896q-27 0 -45.5 -18.5t-18.5 -45.5v-577q0 -27 18.5 -45.5t45.5 -18.5h128v-159q0 -10 5 -18t14 -12q3 -1 6 -1.5t7 -0.5q6 0 11.5 2t10.5 7l185 182h529q27 0 45.5 18.5t18.5 45.5v577q0 27 -18.5 45.5t-45.5 18.5zM960 255h-555l-149 -147v147h-192v577h896
v-577zM224 511h576q13 0 22.5 9.5t9.5 22.5t-9.5 22.5t-22.5 9.5h-576q-13 0 -22.5 -9.5t-9.5 -22.5t9.5 -22.5t22.5 -9.5zM224 639h576q13 0 22.5 9.5t9.5 22.5t-9.5 22.5t-22.5 9.5h-576q-13 0 -22.5 -9.5t-9.5 -22.5t9.5 -22.5t22.5 -9.5zM224 383h384q13 0 22.5 9.5
t9.5 22.5t-9.5 22.5t-22.5 9.5h-384q-13 0 -22.5 -9.5t-9.5 -22.5t9.5 -22.5t22.5 -9.5z" />
    <glyph glyph-name="uniE02D" unicode="&#xe02d;" 
d="M512 -64q-15 0 -29 5.5t-25 16.5l-436 437q-22 22 -22 53.5t22 53.5l160 160q7 7 17.5 9t19.5 -3t14 -14.5t3 -19.5q-2 -7 -2.5 -12.5t-0.5 -10.5q0 -53 37.5 -91t89.5 -38q53 0 87.5 38t34.5 91q0 52 -34.5 89.5t-87.5 37.5q-5 0 -10.5 -0.5t-12.5 -2.5q-10 -2 -19.5 3
t-14.5 14q-4 9 -2.5 19.5t8.5 17.5l149 150q22 21 54 21t54 -21l109 -110q17 54 63 88.5t104 34.5q73 0 124.5 -52t51.5 -124q0 -59 -34.5 -105t-87.5 -63l106 -106q22 -22 22 -53.5t-22 -53.5l-436 -437q-11 -11 -25 -16.5t-29 -5.5v0zM175 565l-108 -108q-4 -4 -3.5 -9
t3.5 -8l436 -437q5 -4 9 -4t9 4l436 437q3 3 3 8t-3 9l-154 154q-7 7 -9 17t3 19q4 9 13 14t19 4h5q2 -1 4 -1h4q47 0 79.5 32.5t32.5 79.5q0 46 -32.5 79t-79.5 33q-46 0 -79 -33t-33 -79q0 -2 0.5 -4t0.5 -4l1 -6q1 -10 -4 -19t-14 -13t-19 -2.5t-17 8.5l-157 157
q-5 5 -9 5t-9 -5l-97 -97q63 -15 101.5 -66.5t38.5 -118.5q0 -79 -53.5 -136t-132.5 -57q-67 0 -118.5 42t-66.5 105v0z" />
    <glyph glyph-name="uniE02E" unicode="&#xe02e;" 
d="M953 705h-121v255h-640v-255h-121q-29 0 -50 -21t-21 -50v-434q0 -30 21 -51t50 -21h121v-192h640v192h121q29 0 50 21t21 51v434q0 29 -21 50t-50 21v0zM256 897h512v-192h-512v192v0zM768 0h-512v353h512v-353zM960 200q0 -3 -2 -5.5t-5 -2.5h-121v225h-640v-224h-121
q-3 0 -5 2t-2 5v434q0 3 2 5t5 2h882q3 0 5 -2t2 -5v-434v0zM832 577h-32q-13 0 -22.5 -9.5t-9.5 -22.5q0 -14 9.5 -23t22.5 -9h32q13 0 22.5 9t9.5 23q0 13 -9.5 22.5t-22.5 9.5z" />
    <glyph glyph-name="uniE02F" unicode="&#xe02f;" 
d="M1024 640q0 26 -18.5 45t-45.5 19h-109q21 20 33.5 47.5t12.5 61.5q0 42 -27 79t-94 37q-44 0 -84 -21t-74 -51t-60.5 -63.5t-43.5 -60.5q-17 27 -44 60.5t-61.5 63.5t-75 51t-84.5 21q-67 0 -94 -37t-27 -79q0 -34 12.5 -61.5t34.5 -48.5h-111q-27 0 -45.5 -18.5
t-18.5 -45.5v-191h65v-417q0 -26 18.5 -45t45.5 -19h767q27 0 45.5 19t18.5 45v417h64v192v0zM776 865q30 0 43.5 -13t13.5 -39q0 -53 -49 -81t-105 -28h-108q34 50 89.5 105.5t115.5 55.5zM249 865q60 0 117 -55.5t91 -105.5h-108q-56 0 -106.5 28.5t-50.5 81.5
q0 26 13.5 38.5t43.5 12.5zM960 512h-416v128h416v-128zM64 640h416v-128h-416v128zM129 448h351v-417h-351v417v0zM896 31h-352v417h352v-417z" />
    <glyph glyph-name="uniE030" unicode="&#xe030;" 
d="M34 896h448q13 0 22.5 9.5t9.5 22.5t-9.5 22.5t-22.5 9.5h-448q-13 0 -22.5 -9.5t-9.5 -22.5t9 -22.5t23 -9.5v0zM34 704h448q13 0 22.5 9.5t9.5 22.5t-9.5 22.5t-22.5 9.5h-448q-13 0 -22.5 -9.5t-9.5 -22.5t9 -22.5t23 -9.5v0zM514 544q0 13 -9.5 22.5t-22.5 9.5h-448
q-13 0 -22.5 -9.5t-9.5 -22.5t9.5 -22.5t22.5 -9.5h448q13 0 22.5 9.5t9.5 22.5zM1013 635l-313 313q-7 8 -17.5 9.5t-19.5 -3.5q-9 -3 -15 -11t-6 -19v-708q-26 19 -58.5 29.5t-69.5 10.5q-79 0 -135.5 -47t-56.5 -113t56.5 -113t135.5 -47q80 0 136 47t56 113v6v6v744
l262 -262q9 -9 22 -9t23 9q9 10 9 23t-9 22v0zM642 93q-2 -33 -37.5 -63t-90.5 -30q-57 0 -93 31t-36 65t36 65t93 31q55 0 90.5 -30t37.5 -63v-6z" />
    <glyph glyph-name="uniE031" unicode="&#xe031;" 
d="M1015 580l-368 370q-6 6 -14 8.5t-17 0.5q-8 -2 -14 -8t-9 -14q-16 -53 -18 -101.5t11 -92.5q-2 -1 -3 -2l-2 -2l-171 -171q-41 19 -85 29t-89 10q-28 0 -55.5 -4t-53.5 -12q-8 -3 -14 -9t-8 -14t0.5 -16t8.5 -14l219 -221l-307 -311l-26 -70l64 25l314 311l221 -223
q5 -5 11 -7.5t12 -2.5q2 0 4 0.5t4 0.5q8 2 14 8t9 14q21 70 15.5 143t-36.5 140l175 175l0.5 0.5l1.5 1.5q19 -6 39.5 -9t42.5 -3q26 0 54 4t57 13q8 3 13.5 9t7.5 14t0 16t-8 14v0zM603 136l-403 405q39 5 78.5 -0.5t78 -19.5t74 -37t65.5 -53t52.5 -65.5t36 -73.5
t18.5 -77.5t0 -78.5zM600 403q-12 20 -27 38t-32 35t-35 32t-38 28l144 144q11 -20 25.5 -38t31.5 -36q18 -18 37 -32.5t39 -25.5l-145 -145v0zM715 652q-47 46 -64.5 98t-8.5 114l287 -288q-62 -9 -114.5 10t-99.5 66z" />
    <glyph glyph-name="uniE032" unicode="&#xe032;" 
d="M960 880h-896q-26 0 -45 -19t-19 -45v-736q0 -26 19 -45t45 -19h896q26 0 45 19t19 45v736q0 26 -19 45t-45 19zM960 80h-896v188l257 249l265 -264q8 -10 20.5 -9.5t23.5 8.5l117 106l210 -217q1 0 1.5 -0.5l1.5 -1.5v-59v0zM960 230l-188 193q-9 8 -20.5 9t-21.5 -7
l-121 -105l-264 262q-5 6 -11 9t-12 3q-7 0 -13 -2t-11 -7l-234 -227v458h896v-586zM736 560q26 0 45 18.5t19 45.5q0 26 -19 45t-45 19t-45 -19t-19 -45q0 -27 19 -45.5t45 -18.5v0z" />
    <glyph glyph-name="uniE033" unicode="&#xe033;" 
d="M993 825l-321 133l-319 -126l-322 126q-2 1 -4 1h-4q-10 0 -16.5 -6.5t-6.5 -17.5v-830q0 -14 9 -25.5t22 -15.5l322 -127l319 129l321 -126q2 0 4 -0.5t4 -0.5q10 0 16.5 7t6.5 18v820q0 14 -9 25.5t-22 15.5v0zM384 779l256 100v-761l-256 -102v763zM64 873l256 -94
v-762l-256 104v752zM960 22l-256 96v760l256 -110v-746z" />
    <glyph glyph-name="uniE034" unicode="&#xe034;" 
d="M22 658l475 -259q4 -1 7.5 -2t7.5 -1t8 0.5t7 2.5l481 259q7 4 11.5 12t4.5 17t-4.5 16.5t-12.5 11.5l-475 241q-7 4 -14.5 4t-14.5 -4l-480 -241q-8 -4 -13 -11.5t-5 -16.5t4.5 -17t12.5 -12v0zM517 892l406 -207l-411 -221l-406 221l411 207v0zM1001 480l-95 48
l-68 -37l80 -41l-411 -221l-406 221l85 43l-68 37l-101 -50q-8 -4 -12.5 -11.5t-4.5 -16.5t4.5 -17t11.5 -12l475 -259q4 -2 8 -3t8 -1t7.5 1t7.5 3l480 259q8 4 12.5 12t4.5 17q0 8 -5 16t-13 12v0zM1001 256l-90 44l-68 -37l75 -37l-411 -221l-406 221l79 36l-68 37
l-95 -43q-8 -4 -12.5 -11.5t-4.5 -16.5t4.5 -17t11.5 -12l475 -259q4 -2 8 -3t8 -1t7.5 1t7.5 3l480 259q8 4 12.5 12t4.5 17q0 8 -5 16t-13 12z" />
    <glyph glyph-name="uniE035" unicode="&#xe035;" 
d="M1023 17l-84 504q-5 49 -44 84t-88 35h-71v85q0 49 -16.5 92t-46 75t-70.5 50.5t-90 18.5t-90 -18.5t-71 -50.5t-47 -75t-17 -92v-85h-77q-49 0 -88 -35t-44 -82l-77 -505q-3 -20 1 -35.5t14 -26.5q9 -10 22.5 -15.5t31.5 -5.5h873q25 0 40 8t22 16t13 22t4 36v0z
M352 725q0 71 45 121.5t116 50.5t115 -50.5t44 -121.5v-85h-320v85v0zM947 0l-872 -1q-4 0 -7.5 2.5t-2.5 8.5l77 504q3 25 23.5 43.5t45.5 18.5h77v-73q-14 -9 -23 -23.5t-9 -31.5q0 -27 18.5 -45.5t45.5 -18.5t45.5 18.5t18.5 45.5q0 17 -9 31.5t-23 23.5v73h320v-73
q-14 -9 -23 -23.5t-9 -31.5q0 -27 18.5 -45.5t45.5 -18.5t45.5 18.5t18.5 45.5q0 17 -9 31.5t-23 23.5v73h71q25 0 45.5 -18.5t23.5 -45.5l83 -503q1 -3 -2 -6t-10 -3v0z" />
    <glyph glyph-name="uniE036" unicode="&#xe036;" 
d="M930 546q0 63 -16.5 122.5t-47 112.5t-75 97t-99.5 77q-12 7 -25 3.5t-19 -14.5q-7 -12 -3.5 -24.5t14.5 -19.5q49 -29 87 -67t64.5 -84t41 -97.5t14.5 -105.5q0 -91 -31.5 -168t-87 -132.5t-132.5 -87t-168 -31.5q-40 0 -79.5 7.5t-76.5 22.5q-12 5 -24.5 0t-17.5 -17
t0.5 -24.5t17.5 -17.5q43 -17 88 -26t92 -9h0.5h0.5v-63h-93q-14 0 -24 -9t-10 -23q0 -13 10 -22.5t24 -9.5h253q14 0 23.5 9.5t9.5 22.5q0 14 -9.5 23t-23.5 9h-97v67q92 11 169 51t132.5 102.5t86.5 145.5t31 180v0zM799 543q0 73 -27.5 137t-75.5 112t-112 76t-137 28
t-137 -28t-112 -76t-75.5 -112t-27.5 -137t27.5 -137t75.5 -112t112 -75.5t137 -27.5t137 27.5t112 75.5t75.5 112t27.5 137zM158 543q0 59 23 112t62 92t91.5 62t112.5 23t112.5 -23t91.5 -62t61.5 -92t22.5 -112q0 -60 -22.5 -112.5t-61.5 -91.5t-91.5 -61.5t-112.5 -22.5
t-112.5 22.5t-91.5 61.5t-62 91.5t-23 112.5v0z" />
    <glyph glyph-name="uniE037" unicode="&#xe037;" 
d="M1025 448q0 102 -37.5 192.5t-103 159t-153.5 111t-188 48.5q-4 0 -8.5 0.5t-8.5 0.5h-2.5h-2.5h-4.5h-4.5q-106 0 -199.5 -40.5t-163 -110t-110 -162.5t-40.5 -199t40.5 -199t110 -162.5t163 -110t199.5 -40.5h4.5h4.5h2.5h2.5q4 0 8.5 0.5t8.5 0.5q100 6 188 48.5
t153.5 111t103 159t37.5 192.5v0zM930 283q-14 4 -48 11.5t-92 14.5q4 33 7 68t3 71q0 29 -2 56.5t-5 54.5q74 9 108.5 18t37.5 10l-12 33q16 -39 25 -82.5t9 -89.5q0 -44 -8 -85.5t-23 -79.5v0zM285 448q0 27 2 53t5 51q39 -3 85.5 -5t101.5 -2v-222q-53 -1 -98.5 -3
t-84.5 -5q-5 32 -8 65t-3 68v0zM543 892q29 -9 56 -33t50 -60t40.5 -82.5t29.5 -100.5q-37 -3 -80.5 -5t-95.5 -3v284v0zM479 891v-283q-51 1 -95 3t-81 5q12 53 30 99.5t40.5 82t49.5 60t56 33.5v0zM479 259v-254q-27 9 -52 30.5t-47 53.5t-40 73.5t-30 89.5q36 3 78 4.5
t91 2.5zM543 4v255q49 -1 91.5 -2.5t77.5 -4.5q-12 -49 -29.5 -91t-39.5 -74t-47.5 -53.5t-52.5 -29.5v0zM543 323v222q55 0 101.5 2t84.5 6q3 -26 5 -52t2 -53q0 -35 -3 -68t-8 -65q-38 3 -83.5 5t-98.5 3zM915 646q-7 -2 -39 -9.5t-92 -14.5q-14 72 -38 132.5t-55 104.5
q73 -32 131 -87t93 -126zM359 869q-39 -45 -70 -108t-48 -140q-55 6 -88 12t-46 10q19 39 45.5 73.5t58.5 63.5t69 51.5t79 37.5v0zM84 583q9 -3 44.5 -10.5t100.5 -14.5q-4 -26 -5.5 -54t-1.5 -56q0 -36 3 -71t9 -68q-56 -6 -91 -12.5t-50 -9.5q-15 37 -22.5 77.5
t-7.5 83.5q0 35 5.5 69t15.5 66zM121 228q18 3 49 8.5t78 10.5q18 -68 46.5 -124t64.5 -96q-38 13 -72.5 33.5t-64.5 46t-55.5 56t-45.5 65.5v0zM691 37q28 40 50.5 93t36.5 116q48 -6 78 -11.5t45 -9.5q-36 -63 -90 -111t-120 -77v0z" />
    <glyph glyph-name="uniE038" unicode="&#xe038;" 
d="M224 848h-192q-13 0 -22.5 -9.5t-9.5 -22.5v-192q0 -13 9.5 -22.5t22.5 -9.5t22.5 9.5t9.5 22.5v160h160q13 0 22.5 9.5t9.5 22.5t-9.5 22.5t-22.5 9.5zM992 304q-13 0 -22.5 -9.5t-9.5 -22.5v-160h-160q-13 0 -22.5 -9.5t-9.5 -22.5t9.5 -22.5t22.5 -9.5h192
q13 0 22.5 9.5t9.5 22.5v192q0 13 -9.5 22.5t-22.5 9.5zM224 112h-160v160q0 13 -9.5 22.5t-22.5 9.5t-22.5 -9.5t-9.5 -22.5v-192q0 -13 9.5 -22.5t22.5 -9.5h192q13 0 22.5 9.5t9.5 22.5t-9.5 22.5t-22.5 9.5zM992 848h-192q-13 0 -22.5 -9.5t-9.5 -22.5t9.5 -22.5
t22.5 -9.5h160v-160q0 -13 9.5 -22.5t22.5 -9.5t22.5 9.5t9.5 22.5v192q0 13 -9.5 22.5t-22.5 9.5z" />
    <glyph glyph-name="uniE039" unicode="&#xe039;" 
d="M960 752h-480l-96 96h-320q-26 0 -45 -18.5t-19 -45.5v-160v0v-64v0v-448q0 -27 19 -45.5t45 -18.5h896q27 0 45.5 18.5t18.5 45.5v576q0 27 -18.5 45.5t-45.5 18.5v0zM64 784h291l79 -77l20 -19h506v-64h-896v160v0zM64 112v448h896v-448h-896z" />
    <glyph glyph-name="uniE03A" unicode="&#xe03a;" 
d="M800 688h64q13 0 22.5 9t9.5 23v32q0 13 -9.5 22.5t-22.5 9.5h-64q-13 0 -22.5 -9.5t-9.5 -22.5v-32q0 -14 9.5 -23t22.5 -9zM800 496h64q13 0 22.5 9t9.5 23v32q0 13 -9.5 22.5t-22.5 9.5h-64q-13 0 -22.5 -9.5t-9.5 -22.5v-32q0 -14 9.5 -23t22.5 -9zM800 304h64
q13 0 22.5 9t9.5 23v32q0 13 -9.5 22.5t-22.5 9.5h-64q-13 0 -22.5 -9.5t-9.5 -22.5v-32q0 -14 9.5 -23t22.5 -9zM800 112h64q13 0 22.5 9t9.5 23v32q0 13 -9.5 22.5t-22.5 9.5h-64q-13 0 -22.5 -9.5t-9.5 -22.5v-32q0 -14 9.5 -23t22.5 -9zM160 688h64q13 0 22.5 9t9.5 23
v32q0 13 -9.5 22.5t-22.5 9.5h-64q-13 0 -22.5 -9.5t-9.5 -22.5v-32q0 -14 9.5 -23t22.5 -9zM160 496h64q13 0 22.5 9t9.5 23v32q0 13 -9.5 22.5t-22.5 9.5h-64q-13 0 -22.5 -9.5t-9.5 -22.5v-32q0 -14 9.5 -23t22.5 -9zM160 304h64q13 0 22.5 9t9.5 23v32q0 13 -9.5 22.5
t-22.5 9.5h-64q-13 0 -22.5 -9.5t-9.5 -22.5v-32q0 -14 9.5 -23t22.5 -9zM160 112h64q13 0 22.5 9t9.5 23v32q0 13 -9.5 22.5t-22.5 9.5h-64q-13 0 -22.5 -9.5t-9.5 -22.5v-32q0 -14 9.5 -23t22.5 -9zM960 944h-896q-26 0 -45 -19t-19 -45v-864q0 -26 19 -45t45 -19h896
q26 0 45 19t19 45v864q0 26 -19 45t-45 19zM960 16h-896v864h896v-864z" />
    <glyph glyph-name="uniE03B" unicode="&#xe03b;" 
d="M102 630q-14 0 -23.5 -9.5t-9.5 -23.5t9.5 -23.5t23.5 -9.5q113 0 209.5 -39.5t166.5 -110t109.5 -167.5t39.5 -210q0 -14 9.5 -23.5t23.5 -9.5t23.5 9.5t9.5 23.5q0 127 -44.5 236t-123.5 188t-187 124t-236 45v0zM102 957q-13 0 -23 -9.5t-10 -22.5q0 -14 10 -23.5
t23 -9.5q176 0 331.5 -67t271.5 -183t183 -271.5t67 -331.5q0 -13 9.5 -23t23.5 -10q13 0 22.5 10t9.5 23q0 190 -72 357t-197 292t-292 197t-357 72v0zM184 300q-75 0 -127.5 -53t-52.5 -127q0 -75 52.5 -128t127.5 -53t127.5 53t52.5 128q0 74 -52.5 127t-127.5 53zM184 2
q-48 0 -82.5 34.5t-34.5 83.5q0 48 34.5 82.5t82.5 34.5t82.5 -34.5t34.5 -82.5q0 -49 -34.5 -83.5t-82.5 -34.5v0z" />
    <glyph glyph-name="uniE03C" unicode="&#xe03c;" 
d="M1024 387q0 16 -2 61.5t-4 62.5q-11 97 -54 180t-110 142.5t-154 93.5t-185 34q-103 0 -193 -37.5t-158.5 -103t-110.5 -155.5t-48 -194q0 -5 -1.5 -30.5t-1.5 -44.5v-15q-1 -4 -1.5 -8.5t-0.5 -9.5v-215q0 -35 25 -60t60 -25h86q36 0 60.5 25t24.5 60v215q0 35 -24.5 60
t-60.5 25h-86q-4 0 -8.5 -0.5t-8.5 -1.5q0 8 0.5 13.5t0.5 7.5q5 92 41.5 170.5t96.5 136t139 90.5t169 33q86 0 162 -29.5t134.5 -82t96 -124.5t46.5 -157q1 -8 2 -24t2 -34q-5 1 -9.5 1.5t-9.5 0.5h-85q-36 0 -60.5 -25t-24.5 -60v-214q0 -24 12.5 -43.5t32.5 -30.5
l-206 -81v5q0 14 -9.5 23t-22.5 9h-96q-13 0 -22.5 -9t-9.5 -23v-32q0 -13 9.5 -22.5t22.5 -9.5h96h0.5h0.5l57 1l330 129q3 1 6 3t5 5q22 10 35.5 30.5t13.5 45.5v214q0 4 -0.5 8t-1.5 7q1 2 1.5 4.5t0.5 4.5v0zM85 384h86q9 0 15 -6t6 -15v-215q0 -8 -6 -14.5t-15 -6.5
h-86q-9 0 -15 6.5t-6 14.5v215q0 9 6 15t15 6v0zM833 363q0 9 6 15t15 6h85q9 0 15 -6t6 -15v-214q0 -8 -6 -14.5t-15 -6.5h-85q-9 0 -15 6.5t-6 14.5v214z" />
    <glyph glyph-name="uniE03D" unicode="&#xe03d;" 
d="M1024 355q0 16 -2 61.5t-4 62.5q-11 97 -54 180t-110 142.5t-154 93.5t-185 34q-103 0 -193 -37.5t-158.5 -103t-110.5 -155.5t-48 -194q0 -5 -1.5 -30.5t-1.5 -44.5v-15q-1 -4 -1.5 -8.5t-0.5 -9.5v-279q0 -35 25 -60t60 -25h86q36 0 60.5 25t24.5 60v279q0 35 -24.5 60
t-60.5 25h-86q-4 0 -8.5 -0.5t-8.5 -1.5q0 8 0.5 13.5t0.5 7.5q5 92 41.5 170.5t96.5 136t139 90.5t169 33q86 0 162 -29.5t134.5 -82t96 -124.5t46.5 -157q1 -8 2 -24t2 -34q-5 1 -9.5 1.5t-9.5 0.5h-85q-36 0 -60.5 -25t-24.5 -60v-278q0 -35 24.5 -60t60.5 -25h85
q35 0 60 25t25 60v278q0 4 -0.5 8t-1.5 7q1 2 1.5 4.5t0.5 4.5zM85 352h86q9 0 15 -6t6 -15v-279q0 -8 -6 -14.5t-15 -6.5h-86q-9 0 -15 6.5t-6 14.5v279q0 9 6 15t15 6v0zM960 53q0 -8 -6 -14.5t-15 -6.5h-85q-9 0 -15 6.5t-6 14.5v278q0 9 6 15t15 6h85q9 0 15 -6t6 -15
v-278z" />
    <glyph glyph-name="uniE03E" unicode="&#xe03e;" 
d="M510 -63q-72 0 -136 27.5t-111.5 74.5t-75 110t-27.5 134q0 84 49 195.5t108.5 213t111 174.5t56.5 80q4 6 11 9.5t14 3.5q9 0 15 -3.5t11 -9.5t57 -78t112 -173t109.5 -213t49.5 -199q0 -71 -28 -134t-76 -110t-112 -74.5t-138 -27.5v0zM511 872q-28 -39 -76.5 -112.5
t-95 -158.5t-81 -170t-34.5 -148q0 -58 22.5 -109.5t61.5 -89.5t91 -60.5t111 -22.5q60 0 113 22.5t92.5 60.5t62 89.5t22.5 109.5q0 65 -34.5 150.5t-82 170t-96 157t-76.5 111.5v0z" />
    <glyph glyph-name="uniE03F" unicode="&#xe03f;" 
d="M1023 450l-118 407q-2 11 -11 17.5t-19 6.5h-736q-11 0 -19.5 -7t-11.5 -17l-107 -387q-2 -5 -1 -10.5t3 -10.5q-1 -4 -2 -8.5t-1 -9.5v-352q0 -26 18.5 -45t45.5 -19h896q27 0 45.5 19t18.5 45v352v2v3v6.5t-1 7.5v0zM164 817h686l93 -322h-298q-1 -58 -38 -94t-95 -36
t-94.5 36t-37.5 94h-306l90 322v0zM960 79h-896v352h263q21 -61 69.5 -95.5t115.5 -34.5t116 34.5t70 95.5h262v-352v0z" />
    <glyph glyph-name="uniE040" unicode="&#xe040;" 
d="M768 960h-352q-27 0 -45.5 -18.5t-18.5 -45.5h352v-256h256v-512h-224v-64h224q27 0 45.5 18.5t18.5 45.5v576zM768 704v166l165 -166h-165zM64 832q-27 0 -45.5 -18.5t-18.5 -45.5v-768q0 -27 18.5 -45.5t45.5 -18.5h544q27 0 45.5 18.5t18.5 45.5v576l-256 256h-352z
M608 0h-544v768h288v-256h256v-512zM416 576v166l165 -166h-165z" />
    <glyph glyph-name="uniE041" unicode="&#xe041;" 
d="M1017 774l-100 111q-4 5 -10.5 8t-13.5 3h-350v34q0 12 -9.5 21t-22.5 9t-22.5 -9t-9.5 -21v-34h-256q-13 0 -22.5 -9.5t-9.5 -22.5v-224q0 -13 9.5 -22.5t22.5 -9.5h256v-64h-348q-7 0 -13.5 -2.5t-10.5 -7.5l-100 -114q-8 -9 -8 -21t8 -21l100 -113q4 -5 10.5 -7
t13.5 -2h348v-290q0 -12 9.5 -21t22.5 -9t22.5 9t9.5 21v290h257q13 0 22.5 9t9.5 23v224q0 14 -9.5 23t-22.5 9h-257v64h350q7 0 13.5 3t10.5 8l100 112q8 10 8 22t-8 21v0zM768 320h-623l-71 79l71 81h623v-160zM879 672h-624v160h624l71 -79z" />
    <glyph glyph-name="uniE042" unicode="&#xe042;" 
d="M967 662l-179 192q-5 5 -11 7.5t-13 2.5h-267l-1 66q0 12 -9.5 21t-22.5 9t-21.5 -9t-8.5 -21l-1 -66h-353q-13 0 -22.5 -9.5t-9.5 -22.5v-384q0 -13 9.5 -22.5t22.5 -9.5h353v-450q0 -12 9.5 -21t22.5 -9t22.5 9t9.5 21v450h267q7 0 13 2.5t11 7.5l179 192q9 9 9 22
t-9 22v0zM750 480h-638v320h638l150 -160z" />
    <glyph glyph-name="uniE043" unicode="&#xe043;" 
d="M1019 665l-140 267q-6 12 -20 20t-27 8h-322h-0.5h-0.5h-0.5h-0.5h-316q-13 0 -27 -8t-20 -20l-140 -262q-6 -12 -5 -28t9 -26l480 -670q4 -5 9 -7.5t10 -2.5t10 2.5t9 7.5l488 664q7 11 8.5 27t-4.5 28v0zM942 672h-171l69 197l102 -197v0zM575 896h206l-64 -183
l-142 183v0zM668 672h-297l140 202zM314 703l-64 193h199l-135 -193v0zM681 608l-172 -492l-164 492h336v0zM437 129l-344 479h185zM749 608h185l-353 -480zM188 878l69 -206h-178l109 206v0z" />
    <glyph glyph-name="uniE044" unicode="&#xe044;" 
d="M833 544h-25t-40 1v64q0 26 -18.5 45t-45.5 19h-640q-27 0 -45.5 -19t-18.5 -45v-481q0 -80 56 -136t136 -56h385q79 0 135 56t56 136v33q21 -1 40.5 -1h24.5q79 0 135 56t56 135q0 80 -56 136.5t-135 56.5v0zM704 128q0 -53 -37.5 -90.5t-89.5 -37.5h-385
q-53 0 -90.5 37.5t-37.5 90.5v481h640v-481zM833 223q-5 0 -24.5 0.5t-40.5 0.5v256h40h25q54 0 91 -36.5t37 -91.5t-37 -92t-91 -37v0zM576 736q13 0 22.5 9.5t9.5 22.5v160q0 13 -9.5 22.5t-22.5 9.5t-22.5 -9.5t-9.5 -22.5v-160q0 -13 9.5 -22.5t22.5 -9.5zM192 736
q13 0 22.5 9.5t9.5 22.5v160q0 13 -9.5 22.5t-22.5 9.5t-22.5 -9.5t-9.5 -22.5v-160q0 -13 9.5 -22.5t22.5 -9.5zM384 736q13 0 22.5 9.5t9.5 22.5v160q0 13 -9.5 22.5t-22.5 9.5t-22.5 -9.5t-9.5 -22.5v-160q0 -13 9.5 -22.5t22.5 -9.5z" />
    <glyph glyph-name="uniE045" unicode="&#xe045;" 
d="M733 680l-313 -135q-4 -2 -7.5 -5.5t-5.5 -7.5l-144 -289q-4 -9 -2.5 -18.5t8.5 -16.5q4 -4 9.5 -6.5t11.5 -2.5q4 0 7 0.5t6 2.5l306 127q4 2 7.5 5t5.5 7l151 297q5 9 3.5 19t-7.5 17q-7 7 -17 8.5t-19 -2.5v0zM358 295l87 178l88 -110zM585 400l-89 112l177 69
l-88 -181v0zM512 960q-106 0 -199.5 -40t-163 -109.5t-109.5 -163t-40 -199.5t40 -199.5t109.5 -163t163 -109.5t199.5 -40t199.5 40t163 109.5t109.5 163t40 199.5t-40 199.5t-109.5 163t-163 109.5t-199.5 40zM512 -1q-93 0 -174.5 35.5t-142 96.5t-96 142.5t-35.5 174.5
t35.5 174.5t96 142t142 96t174.5 35.5t174.5 -35.5t142 -96t96 -142t35.5 -174.5t-35.5 -174.5t-96 -142.5t-142 -96.5t-174.5 -35.5z" />
    <glyph glyph-name="uniE046" unicode="&#xe046;" 
d="M1000 188q-6 5 -36 25t-65.5 43.5t-67 44t-39.5 25.5q-7 4 -15 6.5t-17 2.5q-12 0 -24.5 -3.5t-25.5 -10.5q-12 -6 -42.5 -23.5t-48.5 -27.5q-16 11 -54 42.5t-98 91.5q-59 59 -90.5 97t-42.5 54q10 19 27 49t24 42q12 24 13 46t-8 37q-5 8 -25.5 39t-44 66.5t-44 66
t-24.5 36.5q-8 12 -22 18t-30 6q-13 0 -26 -4t-25 -12q-1 -1 -24.5 -19t-51.5 -44.5t-51.5 -56t-22.5 -53.5q2 -65 32 -134.5t75.5 -137.5t100.5 -131.5t108 -116.5t116.5 -108.5t131.5 -101t138 -75.5t136 -32h1q23 0 52.5 23.5t55.5 51.5t44 51.5l18 23.5q21 31 16.5 60.5
t-24.5 42.5v0zM956 123q-30 -42 -67 -79.5t-54 -44.5q-45 3 -98.5 23.5t-113.5 58t-126.5 92t-136.5 124.5q-69 70 -123.5 136t-92.5 126t-58.5 113.5t-22.5 98.5q6 17 43.5 54t79.5 67q3 2 6.5 3.5t7.5 1.5h1t1 -1q7 -9 26 -38t40.5 -61t40.5 -61t25 -39q0 -2 -1 -7.5
t-5 -13.5t-17.5 -31.5t-32.5 -57.5l-20 -35l23 -33q13 -19 46.5 -59t94.5 -102q61 -61 101.5 -94t58.5 -46l33 -24l36 20q25 15 52 30t37 20q8 5 13 6t7 1v0h1l37.5 -25l61.5 -41t62 -41t39 -26q0 -2 -0.5 -6t-4.5 -9zM684 578l275 273l-1 -155q0 -9 6.5 -16.5t16.5 -7.5h17
q9 1 16 6.5t8 14.5v231l-0.5 0.5l-0.5 0.5l2 12q0 4 -1.5 8.5t-4.5 7.5t-7.5 5t-8.5 2l-12 -1h-0.5h-0.5l-229 1q-10 0 -17 -7t-7 -17v-16q1 -12 9 -18t18 -6h151l-274 -273q-10 -9 -10 -22.5t10 -22.5q9 -10 22.5 -10t22.5 10z" />
    <glyph glyph-name="uniE047" unicode="&#xe047;" 
d="M1000 188q-6 5 -36 25t-65.5 43.5t-67 44t-39.5 25.5q-7 4 -15 6.5t-17 2.5q-12 0 -24.5 -3.5t-25.5 -10.5q-12 -6 -42.5 -23.5t-48.5 -27.5q-16 11 -54 42.5t-98 91.5q-59 59 -90.5 97t-42.5 54q10 19 27 49t24 42q12 24 13 46t-8 37q-5 8 -25.5 39t-44 66.5t-44 66
t-24.5 36.5q-8 12 -22 18t-30 6q-13 0 -26 -4t-25 -12q-1 -1 -24.5 -19t-51.5 -44.5t-51.5 -56t-22.5 -53.5q2 -65 32 -134.5t75.5 -137.5t100.5 -131.5t108 -116.5t116.5 -108.5t131.5 -101t138 -75.5t136 -32h1q23 0 52.5 23.5t55.5 51.5t44 51.5l18 23.5q21 31 16.5 60.5
t-24.5 42.5v0zM956 123q-30 -42 -67 -79.5t-54 -44.5q-45 3 -98.5 23.5t-113.5 58t-126.5 92t-136.5 124.5q-69 70 -123.5 136t-92.5 126t-58.5 113.5t-22.5 98.5q6 17 43.5 54t79.5 67q3 2 6.5 3.5t7.5 1.5h1t1 -1q7 -9 26 -38t40.5 -61t40.5 -61t25 -39q0 -2 -1 -7.5
t-5 -13.5t-17.5 -31.5t-32.5 -57.5l-20 -35l23 -33q13 -19 46.5 -59t94.5 -102q61 -61 101.5 -94t58.5 -46l33 -24l36 20q25 15 52 30t37 20q8 5 13 6t7 1v0h1l37.5 -25l61.5 -41t62 -41t39 -26q0 -2 -0.5 -6t-4.5 -9zM644 583q3 -3 7 -4.5t9 -1.5h12v0h1l229 -1q10 1 17 8
t7 16v17q-1 11 -9 17.5t-18 6.5h-151l262 262q9 9 9 22t-9 23q-10 9 -23 9t-23 -9l-262 -263l1 155q0 10 -7 17t-16 7h-17q-9 0 -16 -5.5t-8 -15.5v-231h0.5h0.5l-2 -12q0 -5 1.5 -9t4.5 -8v0z" />
    <glyph glyph-name="uniE048" unicode="&#xe048;" 
d="M962 760v-1t-1 -1q-9 -7 -38 -26t-61 -40.5t-61 -40.5t-39 -25q-2 0 -7.5 1t-13.5 5t-31.5 17.5t-57.5 32.5l-35 20l-33 -23q-19 -13 -59 -46.5t-102 -94.5q-61 -61 -94 -101.5t-46 -58.5l-24 -33l20 -36q15 -25 30 -52t20 -37q5 -8 6 -13t1 -7v0v-1l-25 -37.5l-41 -61.5
t-41 -62t-26 -39q-2 0 -6 0.5t-9 4.5q-42 30 -79.5 67t-44.5 54q2 45 23 98.5t58.5 113.5t92 126.5t124.5 136.5q70 69 136 123.5t126 92.5t113.5 58.5t98.5 22.5q17 -6 54 -43.5t67 -79.5q2 -3 3.5 -6.5t1.5 -7.5v0zM1024 760q0 13 -4 26t-12 25q-1 1 -19 24.5t-44 51.5
t-55 51.5t-53 22.5q-65 -2 -134.5 -32t-137.5 -75.5t-131.5 -100.5t-116.5 -108t-108.5 -116.5t-101 -131.5t-75.5 -138t-32 -136v-1q0 -23 23.5 -52.5t51.5 -55.5t51.5 -44l23.5 -18q31 -21 60.5 -16.5t42.5 24.5q5 6 25 36t43.5 65.5t44 67t25.5 39.5q4 7 6.5 15t2.5 17
q0 12 -3.5 24.5t-10.5 25.5q-6 12 -23.5 42.5t-27.5 48.5q11 16 42.5 54t91.5 98q59 59 97 90.5t54 42.5q19 -10 49 -27t42 -24q24 -12 46 -13t37 8q8 5 38.5 25.5t66 44t65.5 44t36 24.5q12 8 18 22t6 30v0z" />
    <glyph glyph-name="uniE049" unicode="&#xe049;" 
d="M960 960h-896q-26 0 -45 -19t-19 -45v-896q0 -26 19 -45t45 -19h896q26 0 45 19t19 45v896q0 26 -19 45t-45 19zM960 0h-896v896h896v-896zM224 608h64v-64q0 -14 9.5 -23t22.5 -9t22.5 9t9.5 23v64h64q13 0 22.5 9t9.5 23q0 13 -9.5 22.5t-22.5 9.5h-64v64
q0 13 -9.5 22.5t-22.5 9.5t-22.5 -9.5t-9.5 -22.5v-64h-64q-13 0 -22.5 -9.5t-9.5 -22.5q0 -14 9.5 -23t22.5 -9zM433 369q-9 9 -22.5 9t-22.5 -9l-68 -68l-68 68q-9 9 -22.5 9t-22.5 -9q-10 -10 -10 -23t10 -22l68 -68l-68 -68q-10 -10 -10 -23t10 -22q9 -10 22.5 -10
t22.5 10l68 67l68 -67q9 -10 22.5 -10t22.5 10q10 9 10 22t-10 23l-68 68l68 68q10 9 10 22t-10 23zM608 608h192q13 0 22.5 9t9.5 23q0 13 -9.5 22.5t-22.5 9.5h-192q-13 0 -22.5 -9.5t-9.5 -22.5q0 -14 9.5 -23t22.5 -9zM608 288h192q13 0 22.5 9t9.5 23q0 13 -9.5 22.5
t-22.5 9.5h-192q-13 0 -22.5 -9.5t-9.5 -22.5q0 -14 9.5 -23t22.5 -9zM608 160h192q13 0 22.5 9t9.5 23q0 13 -9.5 22.5t-22.5 9.5h-192q-13 0 -22.5 -9.5t-9.5 -22.5q0 -14 9.5 -23t22.5 -9z" />
    <glyph glyph-name="uniE04A" unicode="&#xe04a;" 
d="M425 281q86 0 161 23.5t130 66.5t86 103.5t30 133.5q0 65 -32.5 122t-88.5 99t-131.5 66.5t-161.5 24.5q-87 0 -163 -24.5t-133 -66.5t-89.5 -99t-32.5 -122q0 -40 10 -81t30 -78t51 -68t72 -52v-1v-1q0 -35 -21.5 -76.5t-33.5 -61.5h1q-1 -2 -1.5 -4t-0.5 -5
q0 -10 6.5 -17t16.5 -7q2 0 4 0.5l2 0.5h1v0q31 5 66.5 22t67.5 38t55.5 40t30.5 27q14 -2 24.5 -2.5t21.5 -0.5h10.5h11.5v0zM331 350l-41 -34q-7 -9 -33.5 -30.5t-53.5 -37.5q17 46 19 63.5l2 17.5l3 39l-35 18q-66 34 -97 97t-31 125q0 52 27.5 97t76 78.5t113 53
t137.5 19.5t137 -19.5t111 -53t74.5 -78.5t27.5 -97q0 -57 -26 -105.5t-71.5 -84t-108 -55t-135.5 -19.5h-19t-42 3l-35 3v0zM1024 350q0 65 -27.5 115t-90.5 87q-2 -17 -6.5 -35t-9.5 -34q41 -29 55.5 -60t14.5 -73q0 -52 -25 -90.5t-82 -67.5l-31 -15l2 -44t6 -59
q-47 34 -65.5 59l-18.5 25l-34 -5q-10 -2 -29.5 -2h-19.5q-65 0 -115 15.5t-91 47.5q11 1 -39.5 1t-52.5 -2q24 -29 55 -52.5t69 -40t81.5 -25t92.5 -8.5h9.5h9.5q10 0 19 0.5t21 1.5q11 -14 65 -59t107 -54v0h1h2h3q9 0 15 6t6 15q0 2 -0.5 4t-1.5 4v0q-10 17 -22 58
t-12 72v0.5v1.5q71 36 105 89.5t34 123.5v0z" />
    <glyph glyph-name="uniE04B" unicode="&#xe04b;" 
d="M960 769h-256v62q0 39 -28 67.5t-68 28.5h-192q-40 0 -68 -28.5t-28 -67.5v-62h-256q-26 0 -45 -19t-19 -45v-225v0v-64v0v-383q0 -26 19 -45t45 -19h896q26 0 45 19t19 45v672q0 26 -19 45t-45 19v0zM384 831q0 13 9.5 22.5t22.5 9.5h192q14 0 23 -9.5t9 -22.5v-62h-256
v62v0zM64 705h896v-225h-352v33q0 26 -19 45t-45 19h-64q-27 0 -45.5 -19t-18.5 -45v-33h-352v225v0zM544 352h-64v161h64v-161zM64 33v383h352v-64q0 -27 18.5 -45.5t45.5 -18.5h64q26 0 45 18.5t19 45.5v64h352v-383h-896v0z" />
    <glyph glyph-name="uniE04C" unicode="&#xe04c;" 
d="M952 958l-423 -114q-8 -2 -22.5 -2t-22.5 2l-412 114q-28 8 -50 -9t-22 -45v-778q0 -24 16 -44.5t39 -27.5l412 -114q8 -2 18.5 -3.5t21.5 -1.5q8 0 18.5 1t20.5 4l423 115q23 6 39 26.5t16 44.5v778q0 28 -22 45t-50 9v0zM480 3l-409 113q-2 1 -4.5 4t-2.5 6v768
l403 -112q3 0 6.5 -1t6.5 -1v-777v0zM960 126q0 -3 -3 -6t-5 -4l-408 -110v776h0.5h1.5l414 112v-768v0zM642 594h4.5t4.5 1l224 63q12 4 18.5 15.5t3.5 23.5q-4 13 -15.5 19.5t-24.5 3.5l-224 -63q-12 -4 -18.5 -15.5t-3.5 -24.5q3 -11 12 -17t19 -6v0zM642 402h4.5t4.5 1
l224 63q12 4 18.5 15.5t3.5 23.5q-4 13 -15.5 19.5t-24.5 3.5l-224 -63q-12 -4 -18.5 -15.5t-3.5 -24.5q3 -11 12 -17t19 -6zM642 210h4.5t4.5 1l224 63q12 4 18.5 15.5t3.5 23.5q-4 13 -15.5 19.5t-24.5 3.5l-224 -63q-12 -4 -18.5 -15.5t-3.5 -24.5q3 -11 12 -17t19 -6v0z
M395 657l-224 63q-13 3 -24.5 -3.5t-15.5 -19.5q-3 -12 3.5 -23.5t18.5 -15.5l224 -63q2 -1 4.5 -1h4.5q10 0 19 6t12 17q3 13 -3.5 24.5t-18.5 15.5v0zM395 465l-224 63q-13 3 -24.5 -3.5t-15.5 -19.5q-3 -12 3.5 -23.5t18.5 -15.5l224 -63q2 -1 4.5 -1h4.5q10 0 19 6
t12 17q3 13 -3.5 24.5t-18.5 15.5v0zM395 273l-224 63q-13 3 -24.5 -3.5t-15.5 -19.5q-3 -12 3.5 -23.5t18.5 -15.5l224 -63q2 -1 4.5 -1h4.5q10 0 19 6t12 17q3 13 -3.5 24.5t-18.5 15.5v0z" />
    <glyph glyph-name="uniE04D" unicode="&#xe04d;" 
d="M1016 676q-5 6 -12 10t-14 4h-100l-205 174q-19 19 -45.5 19t-45.5 -19l-201 -174h-82l-52 177q-15 52 -44 64.5t-44 12.5h-137q-13 0 -22 -9t-9 -23q0 -13 9 -22t22 -9h137q4 0 12 -4t15 -28l177 -650q3 -10 11.5 -16.5t18.5 -6.5h432q10 0 18.5 6t11.5 15l153 450
q2 7 1 15t-5 14zM640 819l152 -130h-305zM815 240h-385l-102 386h616zM752 112q-33 0 -56.5 -23.5t-23.5 -56.5t23.5 -56.5t56.5 -23.5t56.5 23.5t23.5 56.5t-23.5 56.5t-56.5 23.5zM464 112q-33 0 -56.5 -23.5t-23.5 -56.5t23.5 -56.5t56.5 -23.5t56.5 23.5t23.5 56.5
t-23.5 56.5t-56.5 23.5z" />
    <glyph glyph-name="uniE04E" unicode="&#xe04e;" 
d="M1016 676q-5 6 -12 10t-14 4h-679l-52 177q-15 52 -44 64.5t-44 12.5h-137q-13 0 -22 -9t-9 -23q0 -13 9 -22t22 -9h137q4 0 12 -4t15 -28l177 -650q3 -10 11.5 -16.5t18.5 -6.5h432q10 0 18.5 6t11.5 15l153 450q2 7 1 15t-5 14zM815 240h-385l-102 386h616zM752 112
q-33 0 -56.5 -23.5t-23.5 -56.5t23.5 -56.5t56.5 -23.5t56.5 23.5t23.5 56.5t-23.5 56.5t-56.5 23.5zM464 112q-33 0 -56.5 -23.5t-23.5 -56.5t23.5 -56.5t56.5 -23.5t56.5 23.5t23.5 56.5t-23.5 56.5t-56.5 23.5z" />
    <glyph glyph-name="uniE04F" unicode="&#xe04f;" 
d="M864 801h-191v62q0 39 -28 67.5t-68 28.5h-128q-40 0 -68 -28.5t-28 -67.5v-62h-193q-27 0 -45.5 -18.5t-18.5 -45.5v-736q0 -26 18.5 -45t45.5 -19h704q27 0 45.5 19t18.5 45v736q0 27 -18.5 45.5t-45.5 18.5v0zM417 863q0 13 9.5 22.5t22.5 9.5h128q13 0 22.5 -9.5
t9.5 -22.5v-62h-192v62zM864 1h-704v736h193v-66l3.5 -16t28.5 -16q27 0 29.5 16l2.5 16v66h192v-66l3 -16t29 -16q24 0 28 16l4 16v66h191v-736z" />
    <glyph glyph-name="uniE050" unicode="&#xe050;" 
d="M990 18h-0.5h-0.5q-12 0 -19.5 8.5t-8.5 20.5q0 4 -12.5 51.5t-61 102.5t-144.5 100t-264 45v-184q0 -9 -5 -17t-13 -12q-9 -4 -18 -3t-16 7l-415 344q-6 5 -9 11.5t-3 13.5t3 13.5t9 11.5l415 340q7 6 16 7t18 -3q8 -4 13 -11.5t5 -17.5v-179q70 -2 131.5 -14.5
t115 -34.5t98 -53.5t79.5 -72.5q57 -67 82.5 -143.5t33.5 -142.5t4.5 -111.5t-3.5 -49.5q-2 -12 -10 -19.5t-20 -7.5v0zM447 410v0v0q120 0 205.5 -18.5t145 -47.5t97.5 -65.5t64 -72.5q-7 58 -31.5 123t-73.5 121q-32 38 -74 66.5t-93.5 48t-111.5 29t-128 9.5
q-13 0 -22.5 9.5t-9.5 22.5v144l-333 -273l333 -276v148q0 7 2.5 12.5t6.5 10.5q5 4 11 6.5t12 2.5v0z" />
    <glyph glyph-name="uniE051" unicode="&#xe051;" 
d="M34 18h0.5h0.5q12 0 19.5 8.5t8.5 20.5q0 4 12.5 51.5t60.5 102.5t144 100t264 45l1 -184q0 -9 5 -17t13 -12q9 -4 18 -3t16 7l415 344q6 5 9 11.5t3 13.5t-3 13.5t-9 11.5l-415 340q-7 6 -16 7t-18 -3q-8 -4 -13 -11.5t-5 -17.5l-1 -179q-70 -2 -131.5 -14.5t-115 -34.5
t-97.5 -53.5t-79 -72.5q-57 -67 -82.5 -143.5t-33.5 -142.5t-4.5 -111.5t3.5 -49.5q2 -12 10 -19.5t20 -7.5v0zM577 410v0v0q-120 0 -205.5 -18.5t-145 -47.5t-97.5 -65.5t-64 -72.5q7 58 31.5 123t73.5 121q32 38 74 66.5t93.5 48t111.5 29t128 9.5q13 0 22.5 9.5t9.5 22.5
v144l333 -273l-333 -276v148q0 7 -2.5 12.5t-6.5 10.5q-5 4 -11 6.5t-12 2.5z" />
    <glyph glyph-name="uniE052" unicode="&#xe052;" 
d="M1006 744q-8 4 -16.5 2.5t-15.5 -7.5l-162 -145l-145 150l144 166q6 7 7.5 16t-2.5 17t-11.5 12.5t-16.5 4.5h-8q-34 0 -77 -2t-86.5 -10t-83 -23.5t-65.5 -41.5l-14 -14q-27 -28 -43.5 -63.5t-22 -74.5t-1 -78t19.5 -74l-370 -377q-37 -38 -37 -91.5t37 -91.5l45 -46
q19 -19 42.5 -28t47.5 -9q25 0 48.5 9t42.5 28l374 378q27 -14 61 -23t64 -9q49 0 94 19.5t81 55.5l13 14q28 28 43 69.5t22 86t8 85t1 67.5q0 9 -5 16.5t-13 11.5v0zM906 451l-12 -14q-27 -27 -61 -40.5t-71 -13.5q-18 0 -40 3.5t-39 10.5q-15 6 -29 15t-26 21l-410 -414
q-9 -9 -21 -14t-25 -5q-12 0 -24 5t-21 14l-45 46q-18 19 -18 45.5t18 45.5l401 409q-10 15 -17 30.5t-11 32.5v0q-12 47 -3 104t45 94l14 14q31 32 97.5 44t111.5 14l-117 -135q-8 -9 -7.5 -21t8.5 -21l185 -190q9 -9 21 -9.5t21 7.5l131 118q-3 -48 -15 -107t-41 -89v0z
" />
    <glyph glyph-name="uniE053" unicode="&#xe053;" 
d="M1024 450q0 -13 -9 -22.5t-23 -9.5h-449v-324q0 -65 -46 -111.5t-112 -46.5q-65 0 -111.5 46.5t-46.5 111.5q0 13 9.5 22.5t22.5 9.5t22.5 -9.5t9.5 -22.5q0 -39 27.5 -66.5t66.5 -27.5t67 27.5t28 66.5v324h-448q-14 0 -23 9.5t-9 22.5q0 93 33 168t94.5 128.5t150.5 84
t202 34.5v63q0 13 9 22.5t23 9.5q13 0 22 -9.5t9 -22.5v-63q113 -4 202 -34.5t151 -84t95 -128.5t33 -168zM959 482q-6 76 -39 135t-90 100t-137.5 63t-180.5 22q-101 0 -181.5 -22t-137.5 -63t-89.5 -100t-38.5 -135h894v0z" />
    <glyph glyph-name="uniE054" unicode="&#xe054;" 
d="M897 801h-225v87q0 31 -22 52t-52 21h-172q-30 0 -52 -21t-22 -52v-87h-225q-13 0 -22.5 -9.5t-9.5 -22.5t9.5 -22.5t22.5 -9.5h44l74 -740q3 -26 22.5 -44t45.5 -18h398q26 0 45.5 18t21.5 44l75 740h44q13 0 22.5 9.5t9.5 22.5t-9.5 22.5t-22.5 9.5v0zM416 888q0 4 3 7
t7 3h172q4 0 7 -3t3 -7v-87h-192v87zM715 3q0 -2 -1.5 -3t-2.5 -1h-398q-1 0 -2.5 1.5t-1.5 2.5l-73 734h552l-73 -734v0z" />
    <glyph glyph-name="uniE055" unicode="&#xe055;" 
d="M1024 544v338q0 32 -23 55t-55 23h-345q-17 0 -38.5 -2.5t-37.5 -18.5l-506 -506q-9 -10 -14 -21.5t-5 -24.5t5 -24.5t14 -20.5l387 -387q9 -9 20.5 -14t24.5 -5t24.5 5t21.5 14l506 506q16 16 18.5 38t2.5 45v0zM957 506l-506 -506l-387 387l506 506q3 2 14 2.5t17 0.5
h14h331q6 0 10 -4t4 -10v-339q0 -9 -0.5 -21t-2.5 -16v0zM768 832q-53 0 -90.5 -37.5t-37.5 -90.5t37.5 -90.5t90.5 -37.5t90.5 37.5t37.5 90.5t-37.5 90.5t-90.5 37.5zM768 640q-26 0 -45 18.5t-19 45.5t19 45.5t45 18.5q27 0 45.5 -18.5t18.5 -45.5t-18.5 -45.5
t-45.5 -18.5z" />
    <glyph glyph-name="uniE056" unicode="&#xe056;" 
d="M512 960q-106 0 -199.5 -40t-163 -109.5t-109.5 -163t-40 -199.5t40 -199.5t109.5 -163t163 -109.5t199.5 -40t199.5 40t163 109.5t109.5 163t40 199.5t-40 199.5t-109.5 163t-163 109.5t-199.5 40zM640 877q54 -16 101.5 -45t86.5 -67.5t68 -86.5t45 -102h-208
q-17 29 -40.5 52.5t-52.5 40.5v208zM704 448q0 -80 -56.5 -136t-135.5 -56t-135.5 56t-56.5 136q0 79 56.5 135.5t135.5 56.5t135.5 -56.5t56.5 -135.5zM448 891q16 2 32 3.5t32 1.5t32 -1.5t32 -3.5v-196q-15 4 -31 6.5t-33 2.5t-33 -2.5t-31 -6.5v196zM384 877v-208
q-29 -17 -52.5 -40.5t-40.5 -52.5h-208q16 54 45 102t68 86.5t86.5 67.5t101.5 45v0zM64 448q0 16 1.5 32t3.5 32h196q-4 -15 -6.5 -31.5t-2.5 -32.5q0 -17 2.5 -33t5.5 -31h-195q-2 16 -3.5 32t-1.5 32v0zM384 19q-54 16 -102 44.5t-86.5 67.5t-67.5 87t-45 102h208
q16 -29 40 -53t53 -40v-208v0zM576 5q-16 -3 -32 -4t-32 -1t-32 1t-32 4v195q15 -4 31 -6t33 -2t33 2t31 6v-195zM640 19v208q29 16 52.5 40t40.5 53h208q-16 -54 -45 -102t-67.5 -87t-86.5 -67.5t-102 -44.5zM760 384q3 15 5.5 31t2.5 33q0 16 -2.5 32.5t-6.5 31.5h196
q2 -16 3.5 -32t1.5 -32t-1.5 -32t-3.5 -32h-195v0z" />
    <glyph glyph-name="uniE057" unicode="&#xe057;" 
d="M686 577l275 273l-1 -155q0 -9 6.5 -16.5t16.5 -7.5h17q9 1 16 6.5t8 14.5v231q0 1 -0.5 1h-0.5l2 12q0 5 -1.5 9t-4.5 7t-7.5 5t-8.5 2l-12 -1h-0.5h-0.5l-229 1q-10 0 -17 -7t-7 -17v-16q1 -11 9 -17.5t18 -6.5h151l-274 -273q-10 -9 -10 -22.5t10 -22.5
q9 -10 22.5 -10t22.5 10zM339 319l-275 -273l1 155q0 9 -6.5 16.5t-16.5 7.5h-18q-9 -1 -16 -6.5t-8 -14.5v-231q0 -1 0.5 -1h0.5l-2 -12q0 -5 1.5 -9t4.5 -7t7.5 -5t8.5 -2l12 1h0.5h0.5l230 -1q10 0 17 7t7 17v16q-1 11 -9 17.5t-18 6.5h-151l274 273q10 9 10 22.5
t-10 22.5q-9 10 -22.5 10t-22.5 -10v0zM1024 -27v231q-1 9 -8 14.5t-16 6.5h-17q-10 0 -16.5 -7.5t-6.5 -16.5l1 -155l-275 273q-9 10 -22.5 10t-22.5 -10q-10 -9 -10 -22.5t10 -22.5l274 -273h-151q-10 0 -18 -6.5t-9 -17.5v-16q0 -10 7 -17t17 -7l229 1h0.5h0.5l12 -1
q4 0 8.5 2t7.5 5t4.5 7t1.5 9l-2 12h0.5t0.5 1v0zM110 895h151q10 0 18 6.5t9 17.5v16q0 10 -7 17t-17 7l-230 -1h-0.5h-0.5l-12 1q-4 0 -8.5 -2t-7.5 -5t-4.5 -7t-1.5 -9l2 -12h-0.5t-0.5 -1v-231q1 -9 8 -14.5t16 -6.5h18q10 0 16.5 7.5t6.5 16.5l-1 155l275 -273
q9 -10 22.5 -10t22.5 10q10 9 10 22.5t-10 22.5l-274 273v0z" />
    <glyph glyph-name="uniE058" unicode="&#xe058;" 
d="M383 613v231q-1 10 -8 15.5t-16 5.5h-17q-10 0 -16.5 -7t-6.5 -17l1 -155l-266 264q-9 9 -22.5 9t-22.5 -9q-10 -10 -10 -23t10 -23l265 -262l-151 -1q-10 1 -18 -5.5t-9 -17.5v-17q0 -10 7 -17t17 -7l229 1h0.5h0.5h12q4 0 8.5 1.5t7.5 4.5q3 4 4.5 8t1.5 9l-2 12h0.5
h0.5zM646 584q3 -3 7.5 -4.5t8.5 -1.5h12h0.5h0.5l229 -1q10 0 17 7t7 17v17q-1 11 -9 17.5t-18 5.5l-151 1l265 262q10 10 10 23t-10 23q-9 9 -22.5 9t-22.5 -9l-266 -264l1 155q0 10 -6.5 17t-16.5 7h-17q-9 0 -16 -5.5t-8 -15.5v-231h0.5h0.5l-2 -12q0 -5 1.5 -9t4.5 -8z
M378 313q-3 3 -7.5 4.5t-8.5 1.5h-12h-0.5h-0.5l-229 1q-10 0 -17 -7t-7 -17v-17q1 -11 9 -17.5t18 -5.5l151 -1l-265 -263q-10 -10 -10 -23t10 -23q9 -9 22.5 -9t22.5 9l266 265l-1 -156q0 -10 6.5 -17t16.5 -7h17q9 0 16 5.5t8 15.5v231h-0.5h-0.5l2 13q0 5 -1.5 9t-4.5 8
v0zM750 255l151 1q10 -1 18 5.5t9 17.5v17q0 9 -7 16t-17 8h-229h-0.5h-0.5h-14q-4 0 -8.5 -2.5t-7.5 -5.5q-3 -4 -4.5 -8t-1.5 -9l2 -12h-0.5h-0.5v-231q1 -10 8 -15.5t16 -5.5h18q10 0 16.5 7t6.5 17l-1 154l267 -263q9 -9 22.5 -9t22.5 9q10 10 10 23t-10 23z" />
    <glyph glyph-name="uniE059" unicode="&#xe059;" 
d="M402 454l40 55l-135 184h-304v-64h271zM919 629l-78 -70q-7 -7 -8.5 -16.5t5.5 -15.5l6 -8q7 -7 17 -7t17 7l127 115h0.5t0.5 1l8 8q4 3 5.5 7t1.5 9q0 4 -1.5 8.5t-5.5 7.5l-8 8l-0.5 0.5l-0.5 0.5l-129 118q-7 7 -17 7t-17 -7l-6 -8q-7 -7 -5.5 -16.5t8.5 -15.5l76 -69
h-231l-410 -576h-271v-64h304l410 576h202zM1006 107h-0.5t-0.5 1l-129 118q-7 7 -17 7t-17 -7l-6 -8q-7 -7 -5.5 -16.5t8.5 -15.5l77 -70l-199 1l-115 177l-39 -56l121 -185l234 -1l-77 -69q-7 -7 -8.5 -16.5t5.5 -15.5l6 -8q7 -7 17 -7t17 7l127 115h0.5t0.5 1l8 8
q4 3 5.5 7t1.5 9q0 4 -1.5 8.5t-5.5 7.5l-8 8v0z" />
    <glyph glyph-name="uniE05A" unicode="&#xe05a;" 
d="M902 11h-832v640h257l65 62l-2 2h-320q-27 0 -45.5 -19t-18.5 -45v-640q0 -27 18.5 -45.5t45.5 -18.5h832q26 0 45 18.5t19 45.5v500l-64 -61v-439v0zM270 267h65q16 95 64 177t119 142t160.5 94.5t189.5 34.5h17t16 -1l-117 -117q-9 -9 -9 -22.5t9 -22.5q5 -5 10.5 -7
t12.5 -2q6 0 11.5 2t10.5 7l189 194l-189 194q-9 9 -22.5 9t-22.5 -9t-9 -22.5t9 -22.5l116 -116h-14.5h-15.5q-114 0 -215.5 -39.5t-181 -108t-133 -162.5t-70.5 -202v0z" />
    <glyph glyph-name="uniE05B" unicode="&#xe05b;" 
d="M864 256q-40 0 -73.5 -17.5t-54.5 -47.5l-422 215q3 10 4.5 20.5t1.5 21.5q0 14 -2.5 27t-6.5 25l424 206q22 -30 55.5 -48t73.5 -18q66 0 113 47t47 113t-47 113t-113 47t-113 -47t-47 -113q0 -9 1 -18t3 -18l-430 -209q-22 25 -52.5 39t-65.5 14q-66 0 -113 -47
t-47 -113t47 -113t113 -47q38 0 70.5 16.5t54.5 44.5l424 -216q-3 -9 -4 -18t-1 -19q0 -66 47 -113t113 -47t113 47t47 113t-47 113t-113 47v0zM864 896q40 0 68 -28t28 -68t-28 -68t-68 -28t-68 28t-28 68t28 68t68 28zM160 352q-40 0 -68 28t-28 68t28 68t68 28t68 -28
t28 -68t-28 -68t-68 -28zM864 0q-40 0 -68 28t-28 68t28 68t68 28t68 -28t28 -68t-28 -68t-68 -28z" />
    <glyph glyph-name="uniE05C" unicode="&#xe05c;" 
d="M210 77q-15 -32 -38 -51.5t-107 -22.5q2 81 18 103t47 37q13 7 29 15.5t33 21.5l-39 50q-14 -11 -26.5 -17.5t-25.5 -12.5q-51 -25 -76 -66.5t-25 -161.5l1 -33l31 1q128 0 169 27.5t65 76.5q5 11 9 20t13 24l-47 43q-11 -15 -18 -28.5t-13 -25.5v0zM705 771
q-53 0 -90.5 -37.5t-37.5 -90.5t37.5 -90.5t90.5 -37.5t90.5 37.5t37.5 90.5t-37.5 90.5t-90.5 37.5v0zM705 579q-27 0 -45.5 19t-18.5 45t18.5 45t45.5 19q26 0 45 -19t19 -45t-19 -45t-45 -19zM1024 931q-1 12 -9.5 20.5t-20.5 9.5l-30.5 1t-80.5 -2.5t-113 -15
t-127 -35.5q-47 -17 -87 -45.5t-76 -71.5q-31 -35 -60.5 -92t-55.5 -110q-10 -21 -20 -40t-18 -34h-178q-7 0 -13 -2.5t-11 -7.5l-117 -128q-6 -6 -7.5 -14t0.5 -17q3 -8 9 -13.5t15 -7.5l191 -44q9 -12 26 -30.5t43 -47.5l72 -80l39 -165q2 -8 8 -14.5t14 -8.5
q2 -1 4.5 -1.5t4.5 -0.5q6 0 11.5 2t9.5 6l119 118q5 4 8 10.5t3 13.5v165q12 8 31.5 18.5t39.5 21.5q54 31 123 66t102 65q48 42 70 77.5t39 80.5q20 54 29 115t12 112.5t2 87t-1 38.5v0zM922 601q-15 -40 -33 -68.5t-58 -64.5q-30 -26 -97.5 -60.5t-116.5 -62.5
q-37 -20 -60 -33t-32 -21q-6 -5 -9 -11.5t-3 -13.5v-167l-68 -74l-28 121q-1 4 -3 7.5t-5 6.5q-44 49 -96.5 107.5t-57.5 64.5q-4 4 -8.5 7t-9.5 4l-146 33l72 76h182q8 0 15 4.5t12 11.5q10 17 22.5 41t26.5 52q24 48 52.5 103.5t54.5 86.5q31 36 64 60t73 38
q44 17 88 26.5t83.5 14.5t71.5 6.5t53 1.5q0 -22 -0.5 -57t-4.5 -76t-12 -83.5t-22 -80.5z" />
    <glyph glyph-name="uniE05D" unicode="&#xe05d;" 
d="M512 960q-106 0 -199.5 -40t-163 -109.5t-109.5 -163t-40 -199.5t40 -199.5t109.5 -163t163 -109.5t199.5 -40t199.5 40t163 109.5t109.5 163t40 199.5t-40 199.5t-109.5 163t-163 109.5t-199.5 40v0zM512 -1q-93 0 -174.5 35.5t-142 96.5t-96 142.5t-35.5 174.5
t35.5 174.5t96 142t142 96t174.5 35.5t174.5 -35.5t142 -96t96 -142t35.5 -174.5t-35.5 -174.5t-96 -142.5t-142 -96.5t-174.5 -35.5zM465 160h80v81h-80v-81zM511 736q-35 0 -64 -9t-52 -28t-34 -53t-10 -65l1 -3h74q0 19 6 42t19 32q12 10 27 15t33 5q21 0 36.5 -6
t26.5 -17t16.5 -27t5.5 -36q0 -18 -4 -32.5t-12 -27.5q-8 -12 -22 -29.5t-33 -40.5q-20 -18 -32.5 -32.5t-16.5 -25.5q-5 -11 -7.5 -30.5t-2.5 -47.5h77q0 17 1 30.5t3 21.5t8.5 17.5t17.5 20.5q22 22 40.5 43.5t32.5 41.5q13 21 20 44t7 49q0 35 -10.5 62.5t-31.5 46.5
q-22 20 -51.5 29.5t-68.5 9.5v0z" />
    <glyph glyph-name="uniE05E" unicode="&#xe05e;" 
d="M576 867q-14 0 -23 -9.5t-9 -22.5q0 -14 9 -23t23 -9q85 0 155.5 -29.5t121.5 -82t79 -124t28 -156.5t-32.5 -160t-88 -130.5t-130.5 -88t-160 -32.5t-156.5 29t-124 81t-82 123.5t-29.5 156.5q0 13 -9 22.5t-23 9.5q-13 0 -22.5 -9.5t-9.5 -22.5q0 -98 34.5 -181.5
t95.5 -144t144.5 -94.5t181.5 -34t184.5 37.5t151 102t102 151t37.5 184.5t-33.5 181.5t-93 144.5t-141.5 95.5t-180 34.5zM480 512v416q0 13 -9 22.5t-23 9.5q-93 0 -175 -35t-142.5 -95.5t-95.5 -142.5t-35 -175q0 -14 9.5 -23t22.5 -9h416q14 0 23 9t9 23zM416 544h-351
q6 70 35 131.5t76 108.5t108.5 76t131.5 35v-351z" />
    <glyph glyph-name="uniE05F" unicode="&#xe05f;" 
d="M964 910q-26 25 -54.5 38t-59.5 13q-48 0 -81 -22.5t-43 -32.5q-7 -6 -106.5 -106t-216.5 -217l-213.5 -213.5l-96.5 -96.5q-3 -3 -5 -6.5t-4 -7.5q-5 -20 -18.5 -65.5t-28 -93.5t-25.5 -84.5t-12 -37.5q-2 -9 0 -18t9 -15q4 -5 10 -7.5t12 -2.5q3 0 5.5 0.5t4.5 1.5
q1 0 39 12.5t85.5 27.5t92.5 29.5t59 18.5q4 1 7.5 3t6.5 5q9 9 104 103t208.5 206.5t211.5 209.5t112 112q29 30 44 61.5t14 64.5q-1 31 -16 61.5t-45 58.5v0zM716 804q12 -3 38 -15t56 -41q30 -30 40.5 -59.5t11.5 -37.5q-47 -46 -119.5 -118t-149.5 -148.5t-147.5 -146
t-112.5 -111.5q-8 18 -21.5 39.5t-33.5 42.5q-25 25 -49.5 40t-44.5 23l113 113t148.5 149t150.5 151t120 119v0zM140 218q14 -3 39 -15.5t53 -40.5q21 -21 32 -43t16 -37q-33 -11 -95 -32t-109 -36q14 45 33.5 106t30.5 98v0zM920 710q-1 -1 -2.5 -3t-3.5 -4q-7 20 -21 44
t-37 47q-24 24 -47 38.5t-42 22.5l3 3l2 2q2 3 24.5 19t53.5 16q18 0 35.5 -8t33.5 -24q20 -19 30.5 -38t10.5 -37t-10 -38t-30 -40v0z" />
    <glyph glyph-name="uniE060" unicode="&#xe060;" 
d="M799 0h-736v800h450l65 62l-2 2h-513q-26 0 -45 -19t-19 -45v-800q0 -27 19 -45.5t45 -18.5h736q27 0 45.5 18.5t18.5 45.5v468l-64 -61v-407zM974 919q-21 20 -45 30.5t-50 10.5q-39 0 -66.5 -18.5t-35.5 -26.5q-6 -5 -75 -74.5t-150 -150t-147.5 -147l-66.5 -66.5
q-3 -3 -4.5 -6t-2.5 -6q-5 -16 -16 -54t-23 -77.5t-21.5 -70t-9.5 -31.5q-2 -7 0 -14.5t7 -12.5q4 -4 9 -6t10 -2q2 0 4 0.5t4 0.5q1 0 32 10.5t71 23t77 24.5t49 15q3 1 5.5 3t5.5 4q7 7 72.5 72t143.5 141.5t146 143.5t79 79q25 26 37 52t12 52q-1 27 -13.5 52t-37.5 49v0
zM930 759q-6 -7 -35.5 -36t-81.5 -80.5t-126.5 -125t-170.5 -168.5l-20 -19q-22 -7 -67.5 -21.5t-85.5 -27.5q13 42 26.5 87.5t20.5 70.5q20 20 88.5 88t143 142.5l135 135l65.5 65.5q2 2 18.5 14t38.5 12q13 0 25.5 -6t25.5 -18q15 -14 22.5 -28t8.5 -27q0 -13 -7.5 -27.5
t-23.5 -30.5v0z" />
    <glyph glyph-name="uniE061" unicode="&#xe061;" 
d="M992 255v0.5v0.5v667v5.5t-1 5.5q-2 11 -10.5 18.5t-20.5 7.5q-5 0 -9 -1t-7 -3l-598 -156q-8 -2 -14 -7.5t-8 -13.5q-2 -3 -3 -7t-1 -8v-572q-23 15 -51.5 23.5t-60.5 8.5q-73 0 -125 -42t-52 -102t52 -102t125 -42t125 42t52 102q0 3 -0.5 6t-0.5 6v0v0v652l544 141
v-533q-23 15 -51.5 23.5t-60.5 8.5q-73 0 -125 -42t-52 -102t52 -102t125 -42t125 42t52 102q0 4 -0.5 7.5t-0.5 7.5v0zM209 0q-50 0 -81.5 26t-31.5 54t31.5 54t81.5 26q44 0 74 -21t37 -46v-1q0 -2 0.5 -4.5t0.5 -4.5q0 -1 0.5 -1.5t0.5 -1.5q0 -28 -31.5 -54t-81.5 -26v0
zM816 160q-50 0 -81 26t-31 54t31 54t81 26q49 0 80.5 -26t31.5 -54t-31.5 -54t-80.5 -26z" />
    <glyph glyph-name="uniE062" unicode="&#xe062;" 
d="M853 637l-313 313q-8 7 -18 8.5t-19 -2.5t-15.5 -12t-6.5 -18v-709q-25 19 -57.5 30t-69.5 11q-79 0 -135.5 -47t-56.5 -114q0 -66 56.5 -113t135.5 -47q80 0 136 47t56 113v6t-1 6v744l262 -262q10 -9 23 -9t23 9q9 10 9 23t-9 23zM353 1q-56 0 -92 31t-36 65t36 65
t92 31t91.5 -29.5t37.5 -63.5v-6q-2 -33 -37.5 -63t-91.5 -30z" />
    <glyph glyph-name="uniE063" unicode="&#xe063;" 
d="M511 256h7q67 0 110.5 44t43.5 112v381q0 70 -44.5 118.5t-109.5 48.5h-7q-66 0 -112.5 -49t-46.5 -118v-381q0 -67 45.5 -111.5t113.5 -44.5v0zM416 793q0 43 28 73t67 30h7q39 0 64.5 -29.5t25.5 -73.5v-381q0 -41 -24.5 -66.5t-65.5 -25.5h-7q-42 0 -68.5 25.5
t-26.5 66.5v381v0zM800 608q-13 0 -22.5 -9.5t-9.5 -22.5v-133q0 -71 -13 -124.5t-38.5 -88.5t-64.5 -52.5t-92 -17.5h-95q-68 0 -109.5 26t-63.5 67t-29 91.5t-7 98.5v133q0 13 -9.5 22.5t-22.5 9.5t-22.5 -9.5t-9.5 -22.5v-133q0 -83 17 -147.5t51.5 -109t85.5 -67.5
t119 -23h15v-96h-160q-13 0 -22.5 -9.5t-9.5 -22.5t9.5 -22.5t22.5 -9.5h384q13 0 22.5 9.5t9.5 22.5t-9.5 22.5t-22.5 9.5h-160v96h16q47 0 95 14t87.5 52t64.5 105.5t25 175.5v133q0 13 -9.5 22.5t-22.5 9.5z" />
    <glyph glyph-name="uniE064" unicode="&#xe064;" 
d="M960 858h-896q-27 0 -45.5 -18.5t-18.5 -45.5v-576q0 -26 18.5 -45t45.5 -19h160q15 0 23.5 14t8.5 18v0q0 5 -8 19t-24 14h-121q-16 0 -27.5 11t-11.5 27v497q0 16 11.5 27.5t27.5 11.5l818 1q16 0 27.5 -11.5t11.5 -27.5v-498q0 -16 -11.5 -27t-27.5 -11h-403l76 69
q7 6 8.5 15.5t-5.5 16.5l-5 8q-7 7 -17 7t-17 -7l-130 -119v0v0l-9 -8q-3 -3 -5 -7.5t-2 -8.5q0 -5 2 -9t5 -8l9 -8v0v0l128 -115q7 -7 17 -7t17 7l5 8q7 6 5.5 15.5t-8.5 16.5l-77 69h445q27 0 45.5 19t18.5 45v576q0 27 -18.5 45.5t-45.5 18.5v0z" />
    <glyph glyph-name="uniE065" unicode="&#xe065;" 
d="M117 416h554q14 0 23 9.5t9 22.5q0 14 -9 23t-23 9h-552l116 116q9 9 9 22.5t-9 22.5q-10 10 -23 10t-23 -10l-189 -194l189 -194q5 -4 11 -6.5t12 -2.5t12 2.5t11 6.5q9 10 9 23t-9 23l-118 117v0zM960 960h-544q-27 0 -45.5 -18.5t-18.5 -45.5v-288h64v249
q0 16 11.5 27.5t27.5 11.5h465q16 0 27 -11.5t11 -27.5l1 -818q0 -16 -11 -27.5t-27 -11.5h-466q-16 0 -27.5 11.5t-11.5 27.5v250h-64v-289q0 -27 18.5 -45.5t45.5 -18.5h544q26 0 45 18.5t19 45.5v896q0 27 -19 45.5t-45 18.5z" />
    <glyph glyph-name="uniE066" unicode="&#xe066;" 
d="M533 299q-10 -10 -10 -23t10 -23q4 -4 10 -6.5t12 -2.5t12 2.5t11 6.5l189 194l-189 194q-10 10 -23 10t-22 -10q-10 -9 -10 -22.5t10 -22.5l115 -116h-616q-13 0 -22.5 -9t-9.5 -23q0 -13 9.5 -22.5t22.5 -9.5h618l-117 -117v0zM960 960h-576q-26 0 -45 -18.5t-19 -45.5
v-288h65v249q0 16 11 27.5t27 11.5h497q16 0 27.5 -11.5t11.5 -27.5l1 -818q0 -16 -11.5 -27.5t-27.5 -11.5h-498q-16 0 -27 11.5t-11 27.5v250h-65v-289q0 -27 19 -45.5t45 -18.5h576q27 0 45.5 18.5t18.5 45.5v896q0 27 -18.5 45.5t-45.5 18.5z" />
    <glyph glyph-name="uniE067" unicode="&#xe067;" 
d="M96 512h-64q-13 0 -22.5 -9.5t-9.5 -22.5v-64q0 -13 9.5 -22.5t22.5 -9.5h64q13 0 22.5 9.5t9.5 22.5v64q0 13 -9.5 22.5t-22.5 9.5zM992 480h-672q-13 0 -22.5 -9.5t-9.5 -22.5t9.5 -22.5t22.5 -9.5h672q13 0 22.5 9.5t9.5 22.5t-9.5 22.5t-22.5 9.5zM96 256h-64
q-13 0 -22.5 -9.5t-9.5 -22.5v-64q0 -13 9.5 -22.5t22.5 -9.5h64q13 0 22.5 9.5t9.5 22.5v64q0 13 -9.5 22.5t-22.5 9.5zM992 224h-672q-13 0 -22.5 -9.5t-9.5 -22.5t9.5 -22.5t22.5 -9.5h672q13 0 22.5 9.5t9.5 22.5t-9.5 22.5t-22.5 9.5zM96 768h-64q-13 0 -22.5 -9.5
t-9.5 -22.5v-64q0 -13 9.5 -22.5t22.5 -9.5h64q13 0 22.5 9.5t9.5 22.5v64q0 13 -9.5 22.5t-22.5 9.5zM320 672h672q13 0 22.5 9.5t9.5 22.5t-9.5 22.5t-22.5 9.5h-672q-13 0 -22.5 -9.5t-9.5 -22.5t9.5 -22.5t22.5 -9.5z" />
    <glyph glyph-name="uniE068" unicode="&#xe068;" 
d="M609 -64q-219 0 -261 9.5t-69 29.5q-14 11 -51 19t-135 14q-8 1 -14.5 3.5t-10.5 8.5q-2 3 -35.5 70.5t-33.5 182.5q0 114 24 167.5t25 56.5q5 7 12 11t16 4q40 0 87 25t94.5 73.5t93 119t83.5 161.5q13 31 25 50t60 19q28 0 55.5 -17.5t42.5 -42.5t20 -63t3 -79.5
t-8.5 -81.5t-13.5 -69q49 0 124 0.5t118 0.5q59 0 95.5 -32t37.5 -84q0 -17 -2 -36t-7 -31q13 -13 26.5 -32.5t14.5 -44.5q1 -33 -15.5 -57t-30.5 -39q3 -9 8 -21.5t4 -27.5q-2 -37 -24 -61t-40 -37q2 -10 2.5 -27t-3.5 -32q-6 -29 -30.5 -50t-65 -34t-96.5 -19.5t-125 -6.5
v0zM110 73q86 -7 135 -17.5t73 -28.5q19 -15 53.5 -21t237.5 -6q30 0 72 1.5t81 7.5t68 18t34 33q3 17 -8 31l-11 14q-5 12 -0.5 24.5t16.5 17.5q1 0 33 16t33 42q1 18 -7 27.5t-8 10.5q-7 10 -4.5 23t12.5 21l20.5 17t20.5 42q-1 21 -19 34t-19 13q-6 4 -10 9.5t-6 12.5
q-1 6 0.5 13t5.5 13l8 15.5t8 34.5q-1 39 -30.5 46t-38.5 7h-79h-95.5t-80 -0.5l-33.5 -0.5q-9 0 -16 4t-11 11q-5 6 -5.5 14t2.5 16q12 34 20.5 75t12 80.5t1 72.5t-13.5 51q-7 11 -13 20t-30 9q-3 0 -10 -5t-16 -25q-40 -96 -88.5 -171.5t-101 -128t-105.5 -82.5t-102 -35
q-9 -19 -21 -61t-12 -115q0 -74 17.5 -127.5t29.5 -72.5v0z" />
    <glyph glyph-name="uniE069" unicode="&#xe069;" 
d="M1017 447l-481 503q-4 5 -10 7.5t-13 2.5q-6 0 -12 -2.5t-11 -7.5l-483 -503q-9 -10 -8.5 -23t9.5 -23q10 -9 23 -8.5t23 9.5l43 45v-479q0 -13 9 -22.5t23 -9.5h223q13 0 22.5 9.5t9.5 22.5l1 320h255v-320q0 -13 9.5 -22.5t22.5 -9.5h224q13 0 22.5 9.5t9.5 22.5v479
l43 -45q4 -5 10 -7.5t13 -2.5q6 0 11.5 2.5t10.5 6.5q9 10 9.5 23t-8.5 23v0zM864 505v-505h-160v320q0 13 -9.5 22.5t-22.5 9.5h-319q-13 0 -22.5 -9.5t-9.5 -22.5l-1 -320h-159v505q0 2 -0.5 4t-0.5 4l353 368l352 -368q-1 -2 -1 -4v-4v0z" />
    <glyph glyph-name="uniE06A" unicode="&#xe06a;" 
d="M960 -64h-320q-27 0 -45.5 18.5t-18.5 45.5v320q0 27 18.5 45.5t45.5 18.5h320q27 0 45.5 -18.5t18.5 -45.5v-320q0 -27 -18.5 -45.5t-45.5 -18.5zM960 320h-320v-320h320v320zM960 512h-320q-27 0 -45.5 18.5t-18.5 45.5v320q0 27 18.5 45.5t45.5 18.5h320
q27 0 45.5 -18.5t18.5 -45.5v-320q0 -27 -18.5 -45.5t-45.5 -18.5zM960 896h-320v-320h320v320zM384 -64h-320q-27 0 -45.5 18.5t-18.5 45.5v320q0 27 18.5 45.5t45.5 18.5h320q27 0 45.5 -18.5t18.5 -45.5v-320q0 -27 -18.5 -45.5t-45.5 -18.5zM384 320h-320v-320h320v320z
M384 512h-320q-27 0 -45.5 18.5t-18.5 45.5v320q0 27 18.5 45.5t45.5 18.5h320q27 0 45.5 -18.5t18.5 -45.5v-320q0 -27 -18.5 -45.5t-45.5 -18.5zM384 896h-320v-320h320v320z" />
    <glyph glyph-name="uniE06B" unicode="&#xe06b;" 
d="M944 736q-33 0 -56.5 -23.5t-23.5 -56.5q0 -7 1.5 -13.5t3.5 -12.5l-195 -168q-11 8 -23.5 13t-26.5 5q-16 0 -30.5 -6t-25.5 -17l-153 77q-2 31 -24.5 52.5t-54.5 21.5q-33 0 -56.5 -23.5t-23.5 -56.5q0 -9 2 -17.5t6 -16.5l-156 -179q-7 2 -14 3.5t-14 1.5
q-33 0 -56.5 -23.5t-23.5 -56.5t23.5 -56.5t56.5 -23.5t56.5 23.5t23.5 56.5q0 8 -1.5 15.5t-4.5 14.5l158 182q6 -2 12 -3t12 -1q17 0 32.5 7t26.5 19l149 -75q0 -33 23.5 -56t56.5 -23t56.5 23.5t23.5 56.5v2v2l208 179q7 -3 15 -5t17 -2q33 0 56.5 23.5t23.5 56.5
t-23.5 56.5t-56.5 23.5v0z" />
    <glyph glyph-name="uniE06C" unicode="&#xe06c;" 
d="M160 572v356q0 13 -9.5 22.5t-22.5 9.5t-22.5 -9.5t-9.5 -22.5v-356q-41 -11 -68.5 -45t-27.5 -79t27.5 -79t68.5 -45v-356q0 -13 9.5 -22.5t22.5 -9.5t22.5 9.5t9.5 22.5v356q42 11 69 45t27 79t-27 79t-69 45v0zM128 384v0v0v0v0q-27 0 -45.5 19t-18.5 45t18.5 45
t45.5 19v0v0v0v0q27 0 45.5 -19t18.5 -45t-18.5 -45t-45.5 -19zM544 380v548q0 13 -9.5 22.5t-22.5 9.5t-22.5 -9.5t-9.5 -22.5v-548q-41 -11 -68.5 -45t-27.5 -79t27.5 -79t68.5 -45v-164q0 -13 9.5 -22.5t22.5 -9.5t22.5 9.5t9.5 22.5v164q42 11 69 45t27 79t-27 79
t-69 45zM512 192v0v0v0v0q-27 0 -45.5 19t-18.5 45t18.5 45t45.5 19v0v0v0v0q27 0 45.5 -19t18.5 -45t-18.5 -45t-45.5 -19v0zM928 764v164q0 13 -9.5 22.5t-22.5 9.5t-22.5 -9.5t-9.5 -22.5v-164q-41 -11 -68.5 -45t-27.5 -79t27.5 -79t68.5 -45v-548q0 -13 9.5 -22.5
t22.5 -9.5t22.5 9.5t9.5 22.5v548q42 11 69 45t27 79t-27 79t-69 45v0zM896 576v0v0v0v0q-27 0 -45.5 19t-18.5 45t18.5 45t45.5 19v0v0v0v0q27 0 45.5 -19t18.5 -45t-18.5 -45t-45.5 -19z" />
    <glyph glyph-name="uniE06D" unicode="&#xe06d;" 
d="M415 960q219 0 261 -9.5t69 -29.5q14 -11 51 -19t135 -14q8 -1 14.5 -3.5t10.5 -8.5q2 -3 35.5 -70.5t33.5 -182.5q0 -114 -24 -167.5t-25 -56.5q-5 -7 -12 -11t-16 -4q-40 0 -87 -25t-94.5 -73.5t-93 -119t-83.5 -161.5q-13 -31 -25 -50t-60 -19q-28 0 -55.5 17.5
t-42.5 42.5t-20 63t-3 79.5t8.5 81.5t13.5 69q-49 0 -124 -0.5t-118 -0.5q-59 0 -95.5 32t-37.5 84q0 17 2 36t7 31q-13 13 -26.5 32.5t-14.5 44.5q-1 33 15.5 57t30.5 39q-3 9 -8 21.5t-4 27.5q2 37 24 61t40 37q-2 10 -2.5 27t3.5 32q6 29 30.5 50t65 34t96.5 19.5
t125 6.5v0zM914 823q-86 7 -135 17.5t-73 28.5q-19 15 -53.5 21t-237.5 6q-30 0 -72 -1.5t-81 -7.5t-68 -18t-34 -33q-3 -17 8 -31l11 -14q5 -12 0 -24.5t-16 -17.5q-1 0 -33 -16t-33 -43q-1 -17 7 -26.5t8 -10.5q7 -10 4.5 -23t-12.5 -21l-20.5 -17t-20.5 -42q1 -21 19 -34
t19 -13q6 -4 10 -9.5t6 -12.5q1 -6 -0.5 -13t-5.5 -13l-8 -15.5t-8 -34.5q1 -39 30.5 -46t38.5 -7h79h95.5t80 0.5l33.5 0.5q9 0 16 -4t11 -11q5 -6 5.5 -14t-2.5 -16q-12 -34 -20.5 -75t-12 -80.5t-1 -72.5t13.5 -51q7 -11 13 -20t30 -9q3 0 10 5t16 25q40 96 88.5 171.5
t101 128t105.5 82.5t102 35q9 19 21 61t12 115q0 74 -17.5 127.5t-29.5 72.5z" />
    <glyph glyph-name="uniE06E" unicode="&#xe06e;" 
d="M921 857l-336 -786l-119 344l-345 105zM1004 959q-4 0 -9.5 -1t-12.5 -4l-954 -405q-26 -11 -27.5 -29.5t22.5 -33.5l395 -123l130 -404q6 -11 14.5 -16.5t16.5 -5.5q9 0 17 6.5t14 20.5l408 954q8 19 4 30t-18 11v0z" />
    <glyph glyph-name="uniE06F" unicode="&#xe06f;" 
d="M975 895q0 17 -9 32t-24 24q-7 4 -15 6t-16 2q-9 0 -17.5 -2.5t-16.5 -7.5l-736 -447q-12 -7 -19.5 -18.5t-9.5 -25.5v470q0 13 -9.5 22.5t-22.5 9.5t-22.5 -9.5t-9.5 -22.5v-960q0 -13 9.5 -22.5t22.5 -9.5t22.5 9.5t9.5 22.5v470q2 -14 9.5 -25.5t19.5 -18.5l737 -447
q8 -5 16.5 -7.5t17.5 -2.5q8 0 16 2t15 6q15 9 24 24t9 32l-1 894v0zM175 448l736 447l1 -894l-737 447v0z" />
    <glyph glyph-name="uniE070" unicode="&#xe070;" 
d="M574 762l-505 -314l505 -314v247l384 -247v628l-384 -247v256v-9zM571 826q8 0 16.5 -2t16.5 -6q15 -8 24.5 -23t9.5 -33v-132l298 186q8 5 16 7.5t17 2.5q8 0 13 -2t13 -6q15 -8 21 -23t6 -33v-628q0 -18 -6 -33t-22 -23q-7 -4 -13.5 -6t-14.5 -2q-9 0 -16 2.5t-15 7.5
l-297 186v-132q0 -18 -9.5 -33t-24.5 -23q-8 -4 -16 -6t-16 -2q-9 0 -17.5 2.5t-16.5 7.5l-506 314q-14 8 -22 22.5t-8 31.5t8 31.5t22 22.5l506 314q7 5 15.5 7.5t17.5 2.5v0v0z" />
    <glyph glyph-name="uniE071" unicode="&#xe071;" 
d="M145 895l735 -447l-736 -447l1 894v0zM145 959q-8 0 -16 -2t-15 -6q-16 -9 -24.5 -24t-8.5 -32l-1 -894q0 -17 8.5 -32t24.5 -24q7 -4 15 -6t16 -2t17 2.5t16 7.5l737 447q14 8 22 22.5t8 31.5t-8 31.5t-22 22.5l-736 447q-7 5 -16 7.5t-17 2.5v0v0z" />
    <glyph glyph-name="uniE072" unicode="&#xe072;" 
d="M416 960h-224q-13 0 -22.5 -9.5t-9.5 -22.5v-960q0 -13 9.5 -22.5t22.5 -9.5h224q14 0 23 9.5t9 22.5v960q0 13 -9 22.5t-23 9.5zM384 0h-160v896h160v-896zM832 960h-223q-13 0 -22.5 -9.5t-9.5 -22.5v-960q0 -13 9.5 -22.5t22.5 -9.5h223q13 0 22.5 9.5t9.5 22.5v960
q0 13 -9.5 22.5t-22.5 9.5zM800 0h-159v896h159v-896z" />
    <glyph glyph-name="uniE073" unicode="&#xe073;" 
d="M450 762l505 -314l-505 -314v247l-384 -247v628l384 -247v256v-9zM453 826q-8 0 -16.5 -2t-16.5 -6q-15 -8 -24.5 -23t-9.5 -33v-132l-298 186q-8 5 -16 7.5t-17 2.5q-8 0 -13 -2t-13 -6q-15 -8 -21 -23t-6 -33v-628q0 -18 6 -33t22 -23q7 -4 13.5 -6t14.5 -2q9 0 16 2.5
t15 7.5l297 186v-132q0 -18 9.5 -33t24.5 -23q8 -4 16 -6t16 -2q9 0 17.5 2.5t16.5 7.5l506 314q14 8 22 22.5t8 31.5t-8 31.5t-22 22.5l-506 314q-7 5 -15.5 7.5t-17.5 2.5v0v0z" />
    <glyph glyph-name="uniE074" unicode="&#xe074;" 
d="M944 960q-13 0 -22.5 -9.5t-9.5 -22.5v-470q-2 14 -9.5 25.5t-19.5 18.5l-736 447q-8 5 -16.5 7.5t-17.5 2.5q-8 0 -16 -2t-15 -6q-15 -9 -24 -24t-9 -32l-1 -894q0 -17 9 -32t24 -24q7 -4 15 -6t16 -2q9 0 17.5 2.5t16.5 7.5l737 447q12 7 19.5 18.5t9.5 25.5v-470
q0 -13 9.5 -22.5t22.5 -9.5t22.5 9.5t9.5 22.5v960q0 13 -9.5 22.5t-22.5 9.5zM112 1l1 894l736 -447l-737 -447v0z" />
    <glyph glyph-name="uniE075" unicode="&#xe075;" 
d="M960 864h-256v64q0 13 -9.5 22.5t-22.5 9.5t-22.5 -9.5t-9.5 -22.5v-64h-256v64q0 13 -9.5 22.5t-22.5 9.5t-22.5 -9.5t-9.5 -22.5v-64h-256q-27 0 -45.5 -18.5t-18.5 -45.5v-800q0 -26 18.5 -45t45.5 -19h896q27 0 45.5 19t18.5 45v800q0 27 -18.5 45.5t-45.5 18.5z
M960 0h-896v800h256v-32q0 -13 9.5 -22.5t22.5 -9.5t22.5 9.5t9.5 22.5v32h256v-32q0 -13 9.5 -22.5t22.5 -9.5t22.5 9.5t9.5 22.5v32h256v-800v0zM736 448h64q13 0 22.5 9.5t9.5 22.5v64q0 13 -9.5 22.5t-22.5 9.5h-64q-13 0 -22.5 -9.5t-9.5 -22.5v-64q0 -13 9.5 -22.5
t22.5 -9.5zM736 192h64q13 0 22.5 9.5t9.5 22.5v64q0 13 -9.5 22.5t-22.5 9.5h-64q-13 0 -22.5 -9.5t-9.5 -22.5v-64q0 -13 9.5 -22.5t22.5 -9.5zM544 320h-64q-13 0 -22.5 -9.5t-9.5 -22.5v-64q0 -13 9.5 -22.5t22.5 -9.5h64q13 0 22.5 9.5t9.5 22.5v64q0 13 -9.5 22.5
t-22.5 9.5zM544 576h-64q-13 0 -22.5 -9.5t-9.5 -22.5v-64q0 -13 9.5 -22.5t22.5 -9.5h64q13 0 22.5 9.5t9.5 22.5v64q0 13 -9.5 22.5t-22.5 9.5zM288 576h-64q-13 0 -22.5 -9.5t-9.5 -22.5v-64q0 -13 9.5 -22.5t22.5 -9.5h64q13 0 22.5 9.5t9.5 22.5v64q0 13 -9.5 22.5
t-22.5 9.5zM288 320h-64q-13 0 -22.5 -9.5t-9.5 -22.5v-64q0 -13 9.5 -22.5t22.5 -9.5h64q13 0 22.5 9.5t9.5 22.5v64q0 13 -9.5 22.5t-22.5 9.5z" />
    <glyph glyph-name="uniE076" unicode="&#xe076;" 
d="M512 960q-74 0 -138.5 -28.5t-112 -77t-75 -114t-27.5 -139.5q0 -112 44 -172.5t87 -99.5q28 -25 45 -42.5t17 -36.5v-54q0 -1 0.5 -2t0.5 -2h-1v-93q0 -73 44 -118t117 -45q71 0 115 45t44 118v93h-1q0 1 0.5 2t0.5 2v54q0 29 19 49.5t51 48.5q43 38 83 93t40 160
q0 74 -27.5 139.5t-75 114t-112 77t-138.5 28.5zM511 0q-45 0 -70 26.5t-25 72.5v43q17 -6 40.5 -10t55.5 -4q31 0 55 4.5t41 10.5v-44q0 -47 -25.5 -73t-71.5 -26v0zM700 396q-33 -28 -62.5 -61t-29.5 -85v-40q-12 -6 -34.5 -12.5t-62.5 -6.5q-41 0 -63 6t-32 12v41
q0 41 -26.5 70t-56.5 56q-41 37 -75.5 85.5t-34.5 139.5q0 61 22 114.5t61 94t92 63.5t114 23t114 -23t92 -63.5t61 -94t22 -114.5q0 -83 -30.5 -126.5t-70.5 -78.5z" />
    <glyph glyph-name="uniE077" unicode="&#xe077;" 
d="M272 640h-224q-13 0 -22.5 -9.5t-9.5 -22.5v-640q0 -13 9.5 -22.5t22.5 -9.5h224q13 0 22.5 9.5t9.5 22.5v640q0 13 -9.5 22.5t-22.5 9.5v0zM240 0h-160v576h160v-576zM624 450h-224q-14 0 -23 -9.5t-9 -22.5v-450q0 -13 9 -22.5t23 -9.5h224q13 0 22.5 9.5t9.5 22.5v450
q0 13 -9.5 22.5t-22.5 9.5zM592 0h-160v386h160v-386zM976 960h-224q-13 0 -22.5 -9.5t-9.5 -22.5v-960q0 -13 9.5 -22.5t22.5 -9.5h224q13 0 22.5 9.5t9.5 22.5v960q0 13 -9.5 22.5t-22.5 9.5zM944 0h-160v896h160v-896z" />
    <glyph glyph-name="uniE078" unicode="&#xe078;" 
d="M1024 448q0 106 -40 199.5t-109.5 163t-163 109.5t-199.5 40t-199.5 -40t-163 -109.5t-109.5 -163t-40 -199.5t40 -199.5t109.5 -163t163 -109.5t199.5 -40t199.5 40t163 109.5t109.5 163t40 199.5zM63 448q0 93 35.5 174.5t96.5 142t142.5 96t174.5 35.5t174.5 -35.5
t142 -96t96 -142t35.5 -174.5t-35.5 -174.5t-96 -142t-142 -96t-174.5 -35.5t-174.5 35.5t-142.5 96t-96.5 142t-35.5 174.5v0zM544 224v360l116 -116q9 -9 22.5 -9t22.5 9q10 10 10 23t-10 23l-194 189l-194 -189q-4 -5 -6.5 -11t-2.5 -12t2.5 -12t6.5 -11q10 -9 23 -9
t23 9l117 118v-362q0 -14 9.5 -23t22.5 -9q14 0 23 9t9 23v0z" />
    <glyph glyph-name="uniE079" unicode="&#xe079;" 
d="M512 960q-106 0 -199.5 -40t-163 -109.5t-109.5 -163t-40 -199.5t40 -199.5t109.5 -163t163 -109.5t199.5 -40t199.5 40t163 109.5t109.5 163t40 199.5t-40 199.5t-109.5 163t-163 109.5t-199.5 40zM512 -1q-93 0 -174.5 35.5t-142 96.5t-96 142.5t-35.5 174.5
t35.5 174.5t96 142t142 96t174.5 35.5t174.5 -35.5t142 -96t96 -142t35.5 -174.5t-35.5 -174.5t-96 -142.5t-142 -96.5t-174.5 -35.5zM532 641q-9 -9 -9 -22.5t9 -22.5l116 -116h-360q-14 0 -23 -9t-9 -23q0 -13 9 -22.5t23 -9.5h362l-118 -117q-9 -10 -9 -23t9 -23
q5 -4 11 -6.5t12 -2.5t12 2.5t11 6.5l189 194l-189 194q-10 10 -23 10t-23 -10z" />
    <glyph glyph-name="uniE07A" unicode="&#xe07a;" 
d="M512 960q-106 0 -199.5 -40t-163 -109.5t-109.5 -163t-40 -199.5t40 -199.5t109.5 -163t163 -109.5t199.5 -40t199.5 40t163 109.5t109.5 163t40 199.5t-40 199.5t-109.5 163t-163 109.5t-199.5 40zM512 -1q-93 0 -174.5 35.5t-142 96.5t-96 142.5t-35.5 174.5
t35.5 174.5t96 142t142 96t174.5 35.5t174.5 -35.5t142 -96t96 -142t35.5 -174.5t-35.5 -174.5t-96 -142.5t-142 -96.5t-174.5 -35.5zM736 480h-360l116 116q9 9 9 22.5t-9 22.5q-10 10 -23 10t-23 -10l-189 -194l189 -194q5 -4 11 -6.5t12 -2.5t12 2.5t11 6.5q9 10 9 23
t-9 23l-118 117h362q14 0 23 9.5t9 22.5q0 14 -9 23t-23 9v0z" />
    <glyph glyph-name="uniE07B" unicode="&#xe07b;" 
d="M0 448q0 -106 40 -199.5t109.5 -163t163 -109.5t199.5 -40t199.5 40t163 109.5t109.5 163t40 199.5t-40 199.5t-109.5 163t-163 109.5t-199.5 40t-199.5 -40t-163 -109.5t-109.5 -163t-40 -199.5zM961 448q0 -93 -35.5 -174.5t-96.5 -142t-142.5 -96t-174.5 -35.5
t-174.5 35.5t-142 96t-96 142t-35.5 174.5t35.5 174.5t96 142t142 96t174.5 35.5t174.5 -35.5t142.5 -96t96.5 -142t35.5 -174.5zM480 672v-360l-116 116q-9 9 -22.5 9t-22.5 -9q-10 -10 -10 -23t10 -23l194 -189l194 189q4 5 6.5 11t2.5 12t-2.5 12t-6.5 11q-10 9 -23 9
t-23 -9l-117 -118v362q0 14 -9.5 23t-22.5 9q-14 0 -23 -9t-9 -23v0z" />
    <glyph glyph-name="uniE07C" unicode="&#xe07c;" 
d="M512 960q-106 0 -199.5 -40t-163 -109.5t-109.5 -163t-40 -199.5t40 -199.5t109.5 -163t163 -109.5t199.5 -40t199.5 40t163 109.5t109.5 163t40 199.5t-40 199.5t-109.5 163t-163 109.5t-199.5 40zM64 448q0 42 7.5 82t22 77.5t34.5 71t46 63.5l632 -632
q-30 -26 -63.5 -46.5t-71 -35t-77.5 -22t-82 -7.5q-93 0 -174.5 35.5t-142 96.5t-96 142.5t-35.5 174.5zM851 155l-632 632q30 25 63.5 45.5t70.5 34.5t77 21.5t82 7.5q93 0 174.5 -35.5t142 -96t96 -142t35.5 -174.5q0 -42 -7.5 -82t-21.5 -77t-34.5 -70.5t-45.5 -63.5z
" />
    <glyph glyph-name="uniE07D" unicode="&#xe07d;" 
d="M512 832q93 0 174.5 -25t142 -68.5t96 -102t35.5 -124.5t-35.5 -124.5t-96 -102t-142 -68.5t-174.5 -25h-27q-13 0 -23 0.5t-24 2.5l-35 5l-23 -28q-8 -9 -44 -36.5t-81 -48.5q10 24 16 49.5t6 51.5l1 2v45l-35 18q-43 21 -76 49.5t-56 61.5t-35 70.5t-12 77.5
q0 66 35.5 124.5t96 102t142 68.5t174.5 25zM512 896q-106 0 -199.5 -30t-163 -82.5t-109.5 -122t-40 -149.5q0 -50 14.5 -95.5t41.5 -86t67 -74.5t91 -60q0 -1 -0.5 -1.5t-0.5 -1.5q0 -43 -18.5 -85.5t-32.5 -67.5v0q-1 -2 -1.5 -5t-0.5 -6q0 -12 8.5 -20.5t20.5 -8.5h4.5
h3.5v0v0q38 7 75.5 24.5t69.5 38t55.5 40t31.5 29.5q17 -3 29.5 -3.5t26.5 -0.5h12.5h14.5q106 0 199.5 30t163 82.5t109.5 122t40 149.5t-40 149.5t-109.5 122t-163 82.5t-199.5 30v0v0z" />
    <glyph glyph-name="uniE07E" unicode="&#xe07e;" 
d="M638 737q1 0 1.5 -1t0.5 -2v-127q0 -18 9.5 -33.5t24.5 -23.5q8 -4 15.5 -5.5t14.5 -1.5q10 0 20 2.5t18 8.5l218 123v-457l-219 120q-8 6 -17.5 8.5t-19.5 2.5q-7 0 -14.5 -1.5t-14.5 -5.5q-16 -8 -25.5 -23.5t-9.5 -33.5v-125q0 -1 -0.5 -2t-1.5 -1h-572q-1 0 -1.5 1
t-0.5 2v572q0 1 0.5 2t1.5 1h572v0zM990 769q-5 0 -13.5 -2t-14.5 -8l-258 -152v127q0 28 -19 47.5t-47 19.5h-572q-27 0 -46.5 -19.5t-19.5 -47.5v-572q0 -28 19.5 -47.5t46.5 -19.5h572q27 0 46.5 19.5t19.5 47.5v125l263 -153q6 -6 12 -6.5t12 -0.5q5 0 8.5 1.5t4.5 1.5
q9 4 14.5 12t5.5 18v575q0 11 -5.5 19t-14.5 12q-1 0 -4.5 1.5t-9.5 1.5v0v0z" />
    <glyph glyph-name="uniE07F" unicode="&#xe07f;" 
d="M928 736h-147l-77 128h-384l-77 -128h-147q-24 0 -60 -24t-36 -71v-513q0 -40 29 -68t60 -28h841q31 0 62.5 28.5t31.5 66.5v513q0 24 -24 60t-72 36zM960 127q0 -9 -11.5 -19.5t-18.5 -11.5h-840q-6 0 -16 9.5t-10 22.5v513q0 15 14 23t18 8h183l77 128h314l57 -97
l18 -31h183q17 0 24.5 -15t7.5 -17v-513v0zM512 640q-46 0 -87 -17.5t-71.5 -48t-48 -71.5t-17.5 -87t17.5 -87t48 -71.5t71.5 -48t87 -17.5t87 17.5t71.5 48t48 71.5t17.5 87t-17.5 87t-48 71.5t-71.5 48t-87 17.5zM512 256q-66 0 -113 47t-47 113t47 113t113 47t113 -47
t47 -113t-47 -113t-113 -47z" />
    <glyph glyph-name="uniE080" unicode="&#xe080;" 
d="M512 960q-106 0 -199.5 -40t-163 -109.5t-109.5 -163t-40 -199.5t40 -199.5t109.5 -163t163 -109.5t199.5 -40t199.5 40t163 109.5t109.5 163t40 199.5t-40 199.5t-109.5 163t-163 109.5t-199.5 40zM512 -1q-93 0 -174.5 35.5t-142 96.5t-96 142.5t-35.5 174.5
t35.5 174.5t96 142t142 96t174.5 35.5t174.5 -35.5t142 -96t96 -142t35.5 -174.5t-35.5 -174.5t-96 -142.5t-142 -96.5t-174.5 -35.5zM716 635l-300 -302l-135 135q-10 10 -23 10t-23 -10q-9 -9 -9 -22.5t9 -22.5l159 -158q9 -10 22.5 -10t22.5 10l2 2l2 2l319 321
q9 9 9 22.5t-9 22.5q-10 10 -23 10t-23 -10z" />
    <glyph glyph-name="uniE081" unicode="&#xe081;" 
d="M512 960q-106 0 -199.5 -40t-163 -109.5t-109.5 -163t-40 -199.5t40 -199.5t109.5 -163t163 -109.5t199.5 -40t199.5 40t163 109.5t109.5 163t40 199.5t-40 199.5t-109.5 163t-163 109.5t-199.5 40zM512 -1q-93 0 -174.5 35.5t-142 96.5t-96 142.5t-35.5 174.5
t35.5 174.5t96 142t142 96t174.5 35.5t174.5 -35.5t142 -96t96 -142t35.5 -174.5t-35.5 -174.5t-96 -142.5t-142 -96.5t-174.5 -35.5zM544 461v307q0 13 -9.5 22.5t-22.5 9.5t-22.5 -9.5t-9.5 -22.5v-320q0 -7 2.5 -13t7.5 -10l0.5 -0.5t0.5 -1.5l159 -158q9 -10 22.5 -10
t22.5 10q9 9 9 22.5t-9 22.5l-151 151v0z" />
    <glyph glyph-name="uniE082" unicode="&#xe082;" 
d="M512 960q-106 0 -199.5 -40t-163 -109.5t-109.5 -163t-40 -199.5t40 -199.5t109.5 -163t163 -109.5t199.5 -40t199.5 40t163 109.5t109.5 163t40 199.5t-40 199.5t-109.5 163t-163 109.5t-199.5 40zM512 -1q-93 0 -174.5 35.5t-142 96.5t-96 142.5t-35.5 174.5
t35.5 174.5t96 142t142 96t174.5 35.5t174.5 -35.5t142 -96t96 -142t35.5 -174.5t-35.5 -174.5t-96 -142.5t-142 -96.5t-174.5 -35.5zM693 629q-9 9 -22.5 9t-22.5 -9l-136 -136l-136 136q-9 9 -22.5 9t-22.5 -9t-9 -22.5t9 -22.5l136 -136l-136 -136q-9 -9 -9 -22.5
t9 -22.5t22.5 -9t22.5 9l136 136l136 -136q9 -9 22.5 -9t22.5 9t9 22.5t-9 22.5l-136 136l136 136q9 9 9 22.5t-9 22.5z" />
    <glyph glyph-name="uniE083" unicode="&#xe083;" 
d="M763 700q-17 44 -43 80t-62 61t-81 38.5t-99 13.5q-70 0 -127.5 -24t-100 -66.5t-68 -100t-29.5 -124.5q-67 -21 -110 -83t-43 -139q0 -47 17.5 -89t47 -74t68.5 -50.5t83 -18.5h28q14 0 23 9.5t9 22.5t-9 22.5t-23 9.5h-28q-62 0 -107.5 50t-45.5 118q0 60 37 108t90 57
l29 5l-2 30h-1q0 58 18.5 108.5t53 87t82.5 57t108 20.5q95 0 150.5 -44.5t80.5 -124.5l7 -22l23 -1q45 0 85 -17.5t71 -47t49 -69t18 -84.5q0 -41 -13 -82t-37 -74.5t-57.5 -54t-74.5 -20.5h-9q-13 0 -22.5 -9.5t-9.5 -22.5t9.5 -22.5t22.5 -9.5v0q60 2 107 29t79.5 68.5
t49.5 93.5t17 104q0 55 -20.5 103.5t-56 86t-83 61.5t-101.5 30v0zM646 185q-6 7 -15.5 7t-16.5 -7l-70 -78v322q0 13 -9.5 22.5t-22.5 9.5q-14 0 -23 -9.5t-9 -22.5v-322l-68 76q-7 7 -16.5 8t-16.5 -6l-8 -5q-7 -7 -7 -17t7 -17l116 -127v-1v0l8 -8q3 -4 7.5 -5.5
t8.5 -1.5q5 0 9 1.5t8 5.5l8 8v0v1l118 129q7 7 7 15t-7 15l-8 7v0z" />
    <glyph glyph-name="uniE084" unicode="&#xe084;" 
d="M763 700q-17 44 -43 80t-62 61t-81 38.5t-99 13.5q-70 0 -127.5 -24t-100 -66.5t-68 -100t-29.5 -124.5q-67 -21 -110 -83t-43 -139q0 -47 17.5 -89t47 -74t68.5 -50.5t83 -18.5h92q14 0 23 9.5t9 22.5t-9 22.5t-23 9.5h-92q-62 0 -107.5 50t-45.5 118q0 60 37 108t90 57
l29 5l-2 30h-1q0 58 18.5 108.5t53 87t82.5 57t108 20.5q95 0 150.5 -44.5t80.5 -124.5l7 -22l23 -1q45 0 85 -17.5t71 -47t49 -69t18 -84.5q0 -41 -13 -82t-37 -74t-57.5 -54t-74.5 -21h-73q-13 0 -22.5 -9.5t-9.5 -22.5t9.5 -22.5t22.5 -9.5h73q60 2 105.5 29t76 68.5
t46.5 93.5t16 104q0 55 -20.5 103.5t-56 86t-83 61.5t-101.5 30v0zM536 445v0v1l-8 8q-4 4 -8 5.5t-9 1.5q-4 0 -8.5 -1.5t-7.5 -5.5l-8 -8v-1v0l-116 -128q-7 -7 -7 -16.5t7 -17.5l8 -5q7 -7 16.5 -5.5t16.5 8.5l68 76v-322q0 -14 9 -23t23 -9q13 0 22.5 9t9.5 23v322
l70 -78q7 -7 16.5 -8.5t15.5 5.5l8 5q7 8 7 17.5t-7 16.5l-118 130v0z" />
    <glyph glyph-name="uniE085" unicode="&#xe085;" 
d="M560 960h-352q-27 0 -45.5 -18.5t-18.5 -45.5v-896q0 -27 18.5 -45.5t45.5 -18.5h608q27 0 45.5 18.5t18.5 45.5v640zM816 613v-5h-288v288h6zM208 0v896h256v-352h352v-544h-608z" />
    <glyph glyph-name="uniE086" unicode="&#xe086;" 
d="M1023 728q1 5 0.5 9.5t-2.5 8.5q-6 27 -25.5 40.5t-51.5 13.5h-832q-29 0 -56.5 -10.5t-42.5 -30.5q-2 -1 -3 -2.5t-2 -2.5q-5 -6 -7 -12.5t0 -13.5q-1 -2 -1 -4v-4v-512q0 -40 36 -76t76 -36h832q40 0 60 36t20 76v512v4t-1 4zM112 736h832v0v0l-432 -345l-431 344
q8 1 16 1h15v0zM944 160h-832q-13 0 -30.5 17.5t-17.5 30.5v458l427 -341q5 -4 10 -6t11 -2t11 2t10 6l427 341v-458q0 -13 -1.5 -30.5t-14.5 -17.5z" />
    </font>
</defs>
</svg>
